<svg width="450" height="119" viewBox="0 0 450 119" fill="none" xmlns="http://www.w3.org/2000/svg">
<g clip-path="url(#clip0_1_2)">
<path d="M78.9271 0H61.2552L13.9064 46.4167V0H0V92.5725H13.9437V62.5228L30.0497 47.0505L62.15 92.5725H78.9271L40.0414 37.6926L78.9271 0Z" fill="#292929"/>
<path d="M130.452 34.5982C125.754 27.85 118.596 23.9354 109.238 23.9354C90.3729 23.9354 78.9271 37.5808 78.9271 59.0555C78.9271 80.5302 90.3729 94.1756 109.238 94.1756C118.969 94.1756 126.239 90 130.936 82.7299V92.6098H143.426V25.5012H130.452V34.5982ZM111.587 82.9536C99.6189 82.9536 92.4607 74.8633 92.4607 59.5402C92.4607 44.2171 99.5816 35.0828 111.549 35.0828C123.517 35.0828 130.675 43.6951 130.675 59.0182C130.675 74.3786 123.554 82.9536 111.587 82.9536Z" fill="#292929"/>
<path d="M171.127 0H158.115V92.5725H171.127V0Z" fill="#292929"/>
<path d="M219.892 48.5046C216.388 59.1301 212.995 69.942 209.751 80.6048C206.62 69.942 203.227 59.1674 199.722 48.5046L191.93 25.5012H177.763L202.593 94.4366C201.922 96.1143 201.288 97.9412 200.766 99.507C198.828 104.689 195.547 107.56 189.06 107.56H182.573V118.074C184.772 118.335 186.711 118.447 189.321 118.447C202.444 118.447 209.453 114.42 214.151 101.036L241.479 25.5012H227.684L219.892 48.5046Z" fill="#292929"/>
<path d="M283.459 23.9354C273.43 23.9354 265.899 28.2229 261.089 35.6421V25.5012H248.6V118.074H261.611V83.2146C266.421 90.1118 273.84 94.1384 283.459 94.1384C302.063 94.1384 314.142 80.493 314.142 59.0182C314.142 37.5808 302.063 23.9354 283.459 23.9354ZM280.961 82.9536C268.993 82.9536 261.313 74.3786 261.313 59.0182C261.313 43.6578 268.993 35.0828 280.961 35.0828C292.929 35.0828 300.609 43.1359 300.609 58.4963C300.609 73.8567 292.929 82.9536 280.961 82.9536Z" fill="#292929"/>
<path d="M332.187 67.7423C332.187 64.1259 329.279 61.2179 325.663 61.2179C322.046 61.2179 319.138 64.1259 319.138 67.7423C319.138 71.3587 322.046 74.2668 325.663 74.2668C329.279 74.2668 332.187 71.3587 332.187 67.7423Z" fill="#FF6B00"/>
<path d="M353.438 53.6868L346.429 52.5311C338.488 50.9652 333.94 48.7655 333.94 43.024C333.94 37.2825 338.488 34.0389 346.951 34.0389C356.458 34.0389 362.162 36.7606 362.684 46.3795H375.286C374.913 32.2121 366.04 23.8981 346.951 23.8981C330.435 23.8981 321.077 31.5783 321.077 43.3969C321.077 54.3206 327.974 60.8078 342.403 63.4176L349.3 64.7225C360.373 66.6611 363.616 69.2709 363.616 74.6023C363.616 80.5675 359.329 83.9602 348.778 83.9602C340.427 83.9602 335.804 81.9843 333.604 76.8393H320.07C322.941 88.8442 332.97 94.2129 348.666 94.2129C366.226 94.2129 376.74 86.7937 376.74 73.6703C376.74 62.5601 369.843 56.8186 353.438 53.6868Z" fill="#292929"/>
<path d="M416.52 23.8981C396.872 23.8981 383.227 37.5808 383.227 59.0182C383.227 80.493 397.022 94.1384 416.52 94.1384C436.019 94.1384 449.664 80.493 449.664 59.0182C449.664 37.5435 436.168 23.8981 416.52 23.8981ZM416.483 82.9536C404.515 82.9536 396.723 74.3786 396.723 59.0182C396.723 43.6578 404.664 35.0829 416.483 35.0829C428.339 35.0829 436.131 43.6951 436.131 59.0182C436.131 74.3786 428.488 82.9536 416.483 82.9536Z" fill="#292929"/>
</g>
<defs>
<clipPath id="clip0_1_2">
<rect width="450" height="118.558" fill="white"/>
</clipPath>
</defs>
</svg>
