<svg width="90" height="90" viewBox="0 0 90 90" fill="none" xmlns="http://www.w3.org/2000/svg">
<path d="M0.424231 24.4286V24.3018C0.424231 22.2726 1.81929 21.0044 3.97529 21.0044C6.00446 21.0044 7.27269 22.3995 7.27269 24.4286C7.27269 26.4578 5.87764 27.726 3.72164 27.726C1.69246 27.726 0.424231 26.4578 0.424231 24.4286ZM0.424231 31.1503C0.424231 29.1211 1.69246 27.726 3.84846 27.726C5.87764 27.726 7.27269 28.9943 7.27269 31.1503C7.27269 33.1795 6.00446 34.5745 3.84846 34.5745C1.81929 34.5745 0.424231 33.1795 0.424231 31.1503ZM0.424231 37.9987C0.424231 35.9696 1.69246 34.5745 3.84846 34.5745C5.87764 34.5745 7.27269 35.8427 7.27269 37.9987C7.27269 40.0279 6.00446 41.423 3.84846 41.423C1.81929 41.423 0.424231 40.0279 0.424231 37.9987ZM14.1212 17.5802C14.1212 19.6094 12.8529 21.0044 10.6969 21.0044C8.66775 21.0044 7.27269 19.7362 7.27269 17.5802C7.27269 15.551 8.54093 14.1559 10.6969 14.1559C12.7261 14.1559 14.1212 15.551 14.1212 17.5802ZM14.1212 24.3018V24.4286C14.1212 26.4578 12.7261 27.726 10.5701 27.726C8.54093 27.726 7.27269 26.331 7.27269 24.3018C7.27269 22.2726 8.66775 21.0044 10.8237 21.0044C12.8529 21.0044 14.1212 22.2726 14.1212 24.3018ZM14.1212 31.1503C14.1212 33.1795 12.8529 34.5745 10.6969 34.5745C8.66775 34.5745 7.27269 33.3063 7.27269 31.1503C7.27269 29.1211 8.54093 27.726 10.6969 27.726C12.7261 27.726 14.1212 29.1211 14.1212 31.1503ZM14.1212 37.9987C14.1212 40.0279 12.8529 41.423 10.6969 41.423C8.66775 41.423 7.27269 40.1547 7.27269 37.9987C7.27269 35.9696 8.54093 34.5745 10.6969 34.5745C12.7261 34.5745 14.1212 35.9696 14.1212 37.9987ZM20.9696 10.7317C20.9696 12.7609 19.7014 14.1559 17.5454 14.1559C15.5162 14.1559 14.1212 12.8877 14.1212 10.7317C14.1212 8.70254 15.3894 7.30749 17.5454 7.30749C19.5746 7.30749 20.9696 8.70254 20.9696 10.7317ZM20.9696 17.5802C20.9696 19.6094 19.7014 21.0044 17.5454 21.0044C15.5162 21.0044 14.1212 19.7362 14.1212 17.5802C14.1212 15.551 15.3894 14.1559 17.5454 14.1559C19.5746 14.1559 20.9696 15.551 20.9696 17.5802ZM20.9696 24.3018V24.4286C20.9696 26.4578 19.5746 27.726 17.4186 27.726C15.3894 27.726 14.1212 26.331 14.1212 24.3018C14.1212 22.2726 15.5162 21.0044 17.6722 21.0044C19.7014 21.0044 20.9696 22.2726 20.9696 24.3018ZM20.9696 31.1503C20.9696 33.1795 19.7014 34.5745 17.5454 34.5745C15.5162 34.5745 14.1212 33.3063 14.1212 31.1503C14.1212 29.1211 15.3894 27.726 17.5454 27.726C19.5746 27.726 20.9696 29.1211 20.9696 31.1503ZM20.9696 37.9987C20.9696 40.0279 19.7014 41.423 17.5454 41.423C15.5162 41.423 14.1212 40.1547 14.1212 37.9987C14.1212 35.9696 15.3894 34.5745 17.5454 34.5745C19.5746 34.5745 20.9696 35.9696 20.9696 37.9987ZM14.1212 44.8472C14.1212 46.8764 12.8529 48.2714 10.6969 48.2714C8.66775 48.2714 7.27269 47.0032 7.27269 44.8472C7.27269 42.818 8.54093 41.423 10.6969 41.423C12.7261 41.423 14.1212 42.818 14.1212 44.8472ZM20.9696 44.8472C20.9696 46.8764 19.7014 48.2714 17.5454 48.2714C15.5162 48.2714 14.1212 47.0032 14.1212 44.8472C14.1212 42.818 15.3894 41.423 17.5454 41.423C19.5746 41.423 20.9696 42.818 20.9696 44.8472ZM20.9696 51.6957C20.9696 53.7248 19.7014 55.1199 17.5454 55.1199C15.5162 55.1199 14.1212 53.8517 14.1212 51.6957C14.1212 49.6665 15.3894 48.2714 17.5454 48.2714C19.5746 48.2714 20.9696 49.6665 20.9696 51.6957ZM20.9696 58.5441C20.9696 60.5733 19.7014 61.9684 17.5454 61.9684C15.5162 61.9684 14.1212 60.7001 14.1212 58.5441C14.1212 56.515 15.3894 55.1199 17.5454 55.1199C19.5746 55.1199 20.9696 56.515 20.9696 58.5441ZM20.9696 4.01007V3.75643C20.9696 1.72725 22.3647 0.459021 24.3938 0.459021C26.423 0.459021 27.6913 1.85408 27.6913 4.01007C27.6913 6.03925 26.2962 7.30749 24.267 7.30749C22.2379 7.30749 20.9696 6.03925 20.9696 4.01007ZM27.6913 10.6049V10.8585C27.6913 12.8877 26.2962 14.1559 24.267 14.1559C22.2379 14.1559 20.9696 12.7609 20.9696 10.6049C20.9696 8.57572 22.3647 7.30749 24.3938 7.30749C26.423 7.30749 27.6913 8.57572 27.6913 10.6049ZM27.6913 17.4534V17.707C27.6913 19.7362 26.2962 21.0044 24.267 21.0044C22.2379 21.0044 20.9696 19.6094 20.9696 17.4534C20.9696 15.4242 22.3647 14.1559 24.3938 14.1559C26.423 14.1559 27.6913 15.4242 27.6913 17.4534ZM27.6913 24.3018V24.4286C27.6913 26.4578 26.2962 27.726 24.267 27.726C22.2379 27.726 20.9696 26.331 20.9696 24.3018C20.9696 22.2726 22.2379 21.0044 24.3938 21.0044C26.2962 21.0044 27.6913 22.3995 27.6913 24.3018ZM27.6913 31.0235V31.2771C27.6913 33.3063 26.2962 34.5745 24.267 34.5745C22.2379 34.5745 20.9696 33.1795 20.9696 31.0235C20.9696 28.9943 22.3647 27.726 24.3938 27.726C26.423 27.726 27.6913 28.9943 27.6913 31.0235ZM27.6913 37.8719V38.1256C27.6913 40.1547 26.2962 41.423 24.267 41.423C22.2379 41.423 20.9696 40.0279 20.9696 37.8719C20.9696 35.8427 22.3647 34.5745 24.3938 34.5745C26.423 34.5745 27.6913 35.8427 27.6913 37.8719ZM27.6913 3.88325C27.6913 1.85408 28.9595 0.459021 31.1155 0.459021C33.1447 0.459021 34.5397 1.72725 34.5397 3.88325C34.5397 5.91243 33.2715 7.30749 31.1155 7.30749C29.0863 7.30749 27.6913 5.91243 27.6913 3.88325ZM34.5397 10.7317C34.5397 12.7609 33.2715 14.1559 31.1155 14.1559C29.0863 14.1559 27.6913 12.8877 27.6913 10.7317C27.6913 8.70254 28.9595 7.30749 31.1155 7.30749C33.1447 7.30749 34.5397 8.70254 34.5397 10.7317ZM34.5397 17.5802C34.5397 19.6094 33.2715 21.0044 31.1155 21.0044C29.0863 21.0044 27.6913 19.7362 27.6913 17.5802C27.6913 15.551 28.9595 14.1559 31.1155 14.1559C33.1447 14.1559 34.5397 15.551 34.5397 17.5802ZM34.5397 24.3018V24.4286C34.5397 26.4578 33.1447 27.726 30.9887 27.726C28.9595 27.726 27.6913 26.331 27.6913 24.3018C27.6913 22.2726 29.0863 21.0044 31.2423 21.0044C33.2715 21.0044 34.5397 22.2726 34.5397 24.3018ZM34.5397 31.1503C34.5397 33.1795 33.2715 34.5745 31.1155 34.5745C29.0863 34.5745 27.6913 33.3063 27.6913 31.1503C27.6913 29.1211 28.9595 27.726 31.1155 27.726C33.1447 27.726 34.5397 29.1211 34.5397 31.1503ZM34.5397 37.9987C34.5397 40.0279 33.2715 41.423 31.1155 41.423C29.0863 41.423 27.6913 40.1547 27.6913 37.9987C27.6913 35.9696 28.9595 34.5745 31.1155 34.5745C33.1447 34.5745 34.5397 35.9696 34.5397 37.9987ZM27.6913 44.7204V44.974C27.6913 47.0032 26.2962 48.2714 24.267 48.2714C22.2379 48.2714 20.9696 46.8764 20.9696 44.7204C20.9696 42.6912 22.3647 41.423 24.3938 41.423C26.423 41.423 27.6913 42.6912 27.6913 44.7204ZM27.6913 51.5688V51.8225C27.6913 53.8517 26.2962 55.1199 24.267 55.1199C22.2379 55.1199 20.9696 53.7248 20.9696 51.5688C20.9696 49.5397 22.3647 48.2714 24.3938 48.2714C26.423 48.2714 27.6913 49.5397 27.6913 51.5688ZM27.6913 58.4173V58.6709C27.6913 60.7001 26.2962 61.9684 24.267 61.9684C22.2379 61.9684 20.9696 60.5733 20.9696 58.4173C20.9696 56.3881 22.3647 55.1199 24.3938 55.1199C26.423 55.1199 27.6913 56.3881 27.6913 58.4173ZM27.6913 65.2658V65.3926C27.6913 67.4218 26.2962 68.69 24.267 68.69C22.2379 68.69 20.9696 67.2949 20.9696 65.2658C20.9696 63.2366 22.2379 61.9684 24.3938 61.9684C26.2962 61.9684 27.6913 63.3634 27.6913 65.2658ZM34.5397 44.8472C34.5397 46.8764 33.2715 48.2714 31.1155 48.2714C29.0863 48.2714 27.6913 47.0032 27.6913 44.8472C27.6913 42.818 28.9595 41.423 31.1155 41.423C33.1447 41.423 34.5397 42.818 34.5397 44.8472ZM34.5397 51.6957C34.5397 53.7248 33.2715 55.1199 31.1155 55.1199C29.0863 55.1199 27.6913 53.8517 27.6913 51.6957C27.6913 49.6665 28.9595 48.2714 31.1155 48.2714C33.1447 48.2714 34.5397 49.6665 34.5397 51.6957ZM34.5397 58.5441C34.5397 60.5733 33.2715 61.9684 31.1155 61.9684C29.0863 61.9684 27.6913 60.7001 27.6913 58.5441C27.6913 56.515 28.9595 55.1199 31.1155 55.1199C33.1447 55.1199 34.5397 56.515 34.5397 58.5441ZM34.5397 65.2658V65.3926C34.5397 67.4218 33.1447 68.69 30.9887 68.69C28.9595 68.69 27.6913 67.2949 27.6913 65.2658C27.6913 63.2366 29.0863 61.9684 31.2423 61.9684C33.2715 61.9684 34.5397 63.2366 34.5397 65.2658ZM34.5397 72.1142C34.5397 74.1434 33.2715 75.5385 31.1155 75.5385C29.0863 75.5385 27.6913 74.2702 27.6913 72.1142C27.6913 70.0851 28.9595 68.69 31.1155 68.69C33.1447 68.69 34.5397 70.0851 34.5397 72.1142ZM41.3882 10.7317C41.3882 12.7609 40.1199 14.1559 37.9639 14.1559C35.9348 14.1559 34.5397 12.8877 34.5397 10.7317C34.5397 8.70254 35.808 7.30749 37.9639 7.30749C39.9931 7.30749 41.3882 8.70254 41.3882 10.7317ZM41.3882 17.5802C41.3882 19.6094 40.1199 21.0044 37.9639 21.0044C35.9348 21.0044 34.5397 19.7362 34.5397 17.5802C34.5397 15.551 35.808 14.1559 37.9639 14.1559C39.9931 14.1559 41.3882 15.551 41.3882 17.5802ZM41.3882 24.3018V24.4286C41.3882 26.4578 39.9931 27.726 37.8371 27.726C35.808 27.726 34.5397 26.331 34.5397 24.3018C34.5397 22.2726 35.9348 21.0044 38.0908 21.0044C40.1199 21.0044 41.3882 22.2726 41.3882 24.3018ZM41.3882 31.1503C41.3882 33.1795 40.1199 34.5745 37.9639 34.5745C35.9348 34.5745 34.5397 33.3063 34.5397 31.1503C34.5397 29.1211 35.808 27.726 37.9639 27.726C39.9931 27.726 41.3882 29.1211 41.3882 31.1503ZM41.3882 37.9987C41.3882 40.0279 40.1199 41.423 37.9639 41.423C35.9348 41.423 34.5397 40.1547 34.5397 37.9987C34.5397 35.9696 35.808 34.5745 37.9639 34.5745C39.9931 34.5745 41.3882 35.9696 41.3882 37.9987ZM48.2366 17.5802C48.2366 19.6094 46.9684 21.0044 44.8124 21.0044C42.7832 21.0044 41.3882 19.7362 41.3882 17.5802C41.3882 15.551 42.6564 14.1559 44.8124 14.1559C46.8416 14.1559 48.2366 15.551 48.2366 17.5802ZM48.2366 24.3018V24.4286C48.2366 26.4578 46.8416 27.726 44.6856 27.726C42.6564 27.726 41.3882 26.331 41.3882 24.3018C41.3882 22.2726 42.7832 21.0044 44.9392 21.0044C46.9684 21.0044 48.2366 22.2726 48.2366 24.3018ZM48.2366 31.1503C48.2366 33.1795 46.9684 34.5745 44.8124 34.5745C42.7832 34.5745 41.3882 33.3063 41.3882 31.1503C41.3882 29.1211 42.6564 27.726 44.8124 27.726C46.8416 27.726 48.2366 29.1211 48.2366 31.1503ZM48.2366 37.9987C48.2366 40.0279 46.9684 41.423 44.8124 41.423C42.7832 41.423 41.3882 40.1547 41.3882 37.9987C41.3882 35.9696 42.6564 34.5745 44.8124 34.5745C46.8416 34.5745 48.2366 35.9696 48.2366 37.9987ZM41.3882 44.8472C41.3882 46.8764 40.1199 48.2714 37.9639 48.2714C35.9348 48.2714 34.5397 47.0032 34.5397 44.8472C34.5397 42.818 35.808 41.423 37.9639 41.423C39.9931 41.423 41.3882 42.818 41.3882 44.8472ZM41.3882 51.6957C41.3882 53.7248 40.1199 55.1199 37.9639 55.1199C35.9348 55.1199 34.5397 53.8517 34.5397 51.6957C34.5397 49.6665 35.808 48.2714 37.9639 48.2714C39.9931 48.2714 41.3882 49.6665 41.3882 51.6957ZM41.3882 58.5441C41.3882 60.5733 40.1199 61.9684 37.9639 61.9684C35.9348 61.9684 34.5397 60.7001 34.5397 58.5441C34.5397 56.515 35.808 55.1199 37.9639 55.1199C39.9931 55.1199 41.3882 56.515 41.3882 58.5441ZM41.3882 65.2658V65.3926C41.3882 67.4218 39.9931 68.69 37.8371 68.69C35.808 68.69 34.5397 67.2949 34.5397 65.2658C34.5397 63.2366 35.9348 61.9684 38.0908 61.9684C40.1199 61.9684 41.3882 63.2366 41.3882 65.2658ZM41.3882 72.1142C41.3882 74.1434 40.1199 75.5385 37.9639 75.5385C35.9348 75.5385 34.5397 74.2702 34.5397 72.1142C34.5397 70.0851 35.808 68.69 37.9639 68.69C39.9931 68.69 41.3882 70.0851 41.3882 72.1142ZM41.3882 78.9627C41.3882 80.9919 40.1199 82.3869 37.9639 82.3869C35.9348 82.3869 34.5397 81.1187 34.5397 78.9627C34.5397 76.9335 35.808 75.5385 37.9639 75.5385C39.9931 75.5385 41.3882 76.9335 41.3882 78.9627ZM48.2366 44.8472C48.2366 46.8764 46.9684 48.2714 44.8124 48.2714C42.7832 48.2714 41.3882 47.0032 41.3882 44.8472C41.3882 42.818 42.6564 41.423 44.8124 41.423C46.8416 41.423 48.2366 42.818 48.2366 44.8472ZM48.2366 51.6957C48.2366 53.7248 46.9684 55.1199 44.8124 55.1199C42.7832 55.1199 41.3882 53.8517 41.3882 51.6957C41.3882 49.6665 42.6564 48.2714 44.8124 48.2714C46.8416 48.2714 48.2366 49.6665 48.2366 51.6957ZM48.2366 58.5441C48.2366 60.5733 46.9684 61.9684 44.8124 61.9684C42.7832 61.9684 41.3882 60.7001 41.3882 58.5441C41.3882 56.515 42.6564 55.1199 44.8124 55.1199C46.8416 55.1199 48.2366 56.515 48.2366 58.5441ZM48.2366 65.2658V65.3926C48.2366 67.4218 46.8416 68.69 44.6856 68.69C42.6564 68.69 41.3882 67.2949 41.3882 65.2658C41.3882 63.2366 42.7832 61.9684 44.9392 61.9684C46.9684 61.9684 48.2366 63.2366 48.2366 65.2658ZM48.2366 72.1142C48.2366 74.1434 46.9684 75.5385 44.8124 75.5385C42.7832 75.5385 41.3882 74.2702 41.3882 72.1142C41.3882 70.0851 42.6564 68.69 44.8124 68.69C46.8416 68.69 48.2366 70.0851 48.2366 72.1142ZM48.2366 78.9627C48.2366 80.9919 46.9684 82.3869 44.8124 82.3869C42.7832 82.3869 41.3882 81.1187 41.3882 78.9627C41.3882 76.9335 42.6564 75.5385 44.8124 75.5385C46.8416 75.5385 48.2366 76.9335 48.2366 78.9627ZM41.3882 85.8112C41.3882 83.782 42.6564 82.3869 44.8124 82.3869C46.8416 82.3869 48.2366 83.6552 48.2366 85.8112C48.2366 87.8403 46.9684 89.2354 44.8124 89.2354C42.7832 89.2354 41.3882 87.8403 41.3882 85.8112ZM55.0851 10.7317C55.0851 12.7609 53.8169 14.1559 51.6609 14.1559C49.6317 14.1559 48.2366 12.8877 48.2366 10.7317C48.2366 8.70254 49.5049 7.30749 51.6609 7.30749C53.69 7.30749 55.0851 8.70254 55.0851 10.7317ZM55.0851 17.5802C55.0851 19.6094 53.8169 21.0044 51.6609 21.0044C49.6317 21.0044 48.2366 19.7362 48.2366 17.5802C48.2366 15.551 49.5049 14.1559 51.6609 14.1559C53.69 14.1559 55.0851 15.551 55.0851 17.5802ZM55.0851 24.3018V24.4286C55.0851 26.4578 53.69 27.726 51.534 27.726C49.5049 27.726 48.2366 26.331 48.2366 24.3018C48.2366 22.2726 49.6317 21.0044 51.7877 21.0044C53.8169 21.0044 55.0851 22.2726 55.0851 24.3018ZM55.0851 31.1503C55.0851 33.1795 53.8169 34.5745 51.6609 34.5745C49.6317 34.5745 48.2366 33.3063 48.2366 31.1503C48.2366 29.1211 49.5049 27.726 51.6609 27.726C53.69 27.726 55.0851 29.1211 55.0851 31.1503ZM55.0851 37.9987C55.0851 40.0279 53.8169 41.423 51.6609 41.423C49.6317 41.423 48.2366 40.1547 48.2366 37.9987C48.2366 35.9696 49.5049 34.5745 51.6609 34.5745C53.69 34.5745 55.0851 35.9696 55.0851 37.9987ZM55.0851 3.88325C55.0851 1.85408 56.3533 0.459021 58.5093 0.459021C60.5385 0.459021 61.9336 1.72725 61.9336 3.88325C61.9336 5.91243 60.6653 7.30749 58.5093 7.30749C56.4802 7.30749 55.0851 5.91243 55.0851 3.88325ZM61.9336 10.7317C61.9336 12.7609 60.6653 14.1559 58.5093 14.1559C56.4802 14.1559 55.0851 12.8877 55.0851 10.7317C55.0851 8.70254 56.3533 7.30749 58.5093 7.30749C60.5385 7.30749 61.9336 8.70254 61.9336 10.7317ZM61.9336 17.5802C61.9336 19.6094 60.6653 21.0044 58.5093 21.0044C56.4802 21.0044 55.0851 19.7362 55.0851 17.5802C55.0851 15.551 56.3533 14.1559 58.5093 14.1559C60.5385 14.1559 61.9336 15.551 61.9336 17.5802ZM61.9336 24.3018V24.4286C61.9336 26.4578 60.5385 27.726 58.3825 27.726C56.3533 27.726 55.0851 26.331 55.0851 24.3018C55.0851 22.2726 56.4802 21.0044 58.6362 21.0044C60.6653 21.0044 61.9336 22.2726 61.9336 24.3018ZM61.9336 31.1503C61.9336 33.1795 60.6653 34.5745 58.5093 34.5745C56.4802 34.5745 55.0851 33.3063 55.0851 31.1503C55.0851 29.1211 56.3533 27.726 58.5093 27.726C60.5385 27.726 61.9336 29.1211 61.9336 31.1503ZM61.9336 37.9987C61.9336 40.0279 60.6653 41.423 58.5093 41.423C56.4802 41.423 55.0851 40.1547 55.0851 37.9987C55.0851 35.9696 56.3533 34.5745 58.5093 34.5745C60.5385 34.5745 61.9336 35.9696 61.9336 37.9987ZM55.0851 44.8472C55.0851 46.8764 53.8169 48.2714 51.6609 48.2714C49.6317 48.2714 48.2366 47.0032 48.2366 44.8472C48.2366 42.818 49.5049 41.423 51.6609 41.423C53.69 41.423 55.0851 42.818 55.0851 44.8472ZM55.0851 51.6957C55.0851 53.7248 53.8169 55.1199 51.6609 55.1199C49.6317 55.1199 48.2366 53.8517 48.2366 51.6957C48.2366 49.6665 49.5049 48.2714 51.6609 48.2714C53.69 48.2714 55.0851 49.6665 55.0851 51.6957ZM55.0851 58.5441C55.0851 60.5733 53.8169 61.9684 51.6609 61.9684C49.6317 61.9684 48.2366 60.7001 48.2366 58.5441C48.2366 56.515 49.5049 55.1199 51.6609 55.1199C53.69 55.1199 55.0851 56.515 55.0851 58.5441ZM55.0851 65.2658V65.3926C55.0851 67.4218 53.69 68.69 51.534 68.69C49.5049 68.69 48.2366 67.2949 48.2366 65.2658C48.2366 63.2366 49.6317 61.9684 51.7877 61.9684C53.8169 61.9684 55.0851 63.2366 55.0851 65.2658ZM55.0851 72.1142C55.0851 74.1434 53.8169 75.5385 51.6609 75.5385C49.6317 75.5385 48.2366 74.2702 48.2366 72.1142C48.2366 70.0851 49.5049 68.69 51.6609 68.69C53.69 68.69 55.0851 70.0851 55.0851 72.1142ZM55.0851 78.9627C55.0851 80.9919 53.8169 82.3869 51.6609 82.3869C49.6317 82.3869 48.2366 81.1187 48.2366 78.9627C48.2366 76.9335 49.5049 75.5385 51.6609 75.5385C53.69 75.5385 55.0851 76.9335 55.0851 78.9627ZM61.9336 44.8472C61.9336 46.8764 60.6653 48.2714 58.5093 48.2714C56.4802 48.2714 55.0851 47.0032 55.0851 44.8472C55.0851 42.818 56.3533 41.423 58.5093 41.423C60.5385 41.423 61.9336 42.818 61.9336 44.8472ZM61.9336 51.6957C61.9336 53.7248 60.6653 55.1199 58.5093 55.1199C56.4802 55.1199 55.0851 53.8517 55.0851 51.6957C55.0851 49.6665 56.3533 48.2714 58.5093 48.2714C60.5385 48.2714 61.9336 49.6665 61.9336 51.6957ZM61.9336 58.5441C61.9336 60.5733 60.6653 61.9684 58.5093 61.9684C56.4802 61.9684 55.0851 60.7001 55.0851 58.5441C55.0851 56.515 56.3533 55.1199 58.5093 55.1199C60.5385 55.1199 61.9336 56.515 61.9336 58.5441ZM61.9336 65.2658V65.3926C61.9336 67.4218 60.5385 68.69 58.3825 68.69C56.3533 68.69 55.0851 67.2949 55.0851 65.2658C55.0851 63.2366 56.4802 61.9684 58.6362 61.9684C60.6653 61.9684 61.9336 63.2366 61.9336 65.2658ZM61.9336 72.1142C61.9336 74.1434 60.6653 75.5385 58.5093 75.5385C56.4802 75.5385 55.0851 74.2702 55.0851 72.1142C55.0851 70.0851 56.3533 68.69 58.5093 68.69C60.5385 68.69 61.9336 70.0851 61.9336 72.1142ZM61.9336 4.01007V3.75643C61.9336 1.72725 63.3286 0.459021 65.3578 0.459021C67.387 0.459021 68.6552 1.85408 68.6552 4.01007C68.6552 6.03925 67.2601 7.30749 65.231 7.30749C63.2018 7.30749 61.9336 6.03925 61.9336 4.01007ZM68.6552 10.6049V10.8585C68.6552 12.8877 67.2601 14.1559 65.231 14.1559C63.2018 14.1559 61.9336 12.7609 61.9336 10.6049C61.9336 8.57572 63.3286 7.30749 65.3578 7.30749C67.387 7.30749 68.6552 8.57572 68.6552 10.6049ZM68.6552 17.4534V17.707C68.6552 19.7362 67.2601 21.0044 65.231 21.0044C63.2018 21.0044 61.9336 19.6094 61.9336 17.4534C61.9336 15.4242 63.3286 14.1559 65.3578 14.1559C67.387 14.1559 68.6552 15.4242 68.6552 17.4534ZM68.6552 24.3018V24.4286C68.6552 26.4578 67.2601 27.726 65.231 27.726C63.2018 27.726 61.9336 26.331 61.9336 24.3018C61.9336 22.2726 63.2018 21.0044 65.3578 21.0044C67.2601 21.0044 68.6552 22.3995 68.6552 24.3018ZM68.6552 31.0235V31.2771C68.6552 33.3063 67.2601 34.5745 65.231 34.5745C63.2018 34.5745 61.9336 33.1795 61.9336 31.0235C61.9336 28.9943 63.3286 27.726 65.3578 27.726C67.387 27.726 68.6552 28.9943 68.6552 31.0235ZM68.6552 37.8719V38.1256C68.6552 40.1547 67.2601 41.423 65.231 41.423C63.2018 41.423 61.9336 40.0279 61.9336 37.8719C61.9336 35.8427 63.3286 34.5745 65.3578 34.5745C67.387 34.5745 68.6552 35.8427 68.6552 37.8719ZM75.5037 10.7317C75.5037 12.7609 74.2354 14.1559 72.0794 14.1559C70.0503 14.1559 68.6552 12.8877 68.6552 10.7317C68.6552 8.70254 69.9234 7.30749 72.0794 7.30749C74.1086 7.30749 75.5037 8.70254 75.5037 10.7317ZM75.5037 17.5802C75.5037 19.6094 74.2354 21.0044 72.0794 21.0044C70.0503 21.0044 68.6552 19.7362 68.6552 17.5802C68.6552 15.551 69.9234 14.1559 72.0794 14.1559C74.1086 14.1559 75.5037 15.551 75.5037 17.5802ZM75.5037 24.3018V24.4286C75.5037 26.4578 74.1086 27.726 71.9526 27.726C69.9234 27.726 68.6552 26.331 68.6552 24.3018C68.6552 22.2726 70.0503 21.0044 72.2063 21.0044C74.2354 21.0044 75.5037 22.2726 75.5037 24.3018ZM75.5037 31.1503C75.5037 33.1795 74.2354 34.5745 72.0794 34.5745C70.0503 34.5745 68.6552 33.3063 68.6552 31.1503C68.6552 29.1211 69.9234 27.726 72.0794 27.726C74.1086 27.726 75.5037 29.1211 75.5037 31.1503ZM75.5037 37.9987C75.5037 40.0279 74.2354 41.423 72.0794 41.423C70.0503 41.423 68.6552 40.1547 68.6552 37.9987C68.6552 35.9696 69.9234 34.5745 72.0794 34.5745C74.1086 34.5745 75.5037 35.9696 75.5037 37.9987ZM68.6552 44.7204V44.974C68.6552 47.0032 67.2601 48.2714 65.231 48.2714C63.2018 48.2714 61.9336 46.8764 61.9336 44.7204C61.9336 42.6912 63.3286 41.423 65.3578 41.423C67.387 41.423 68.6552 42.6912 68.6552 44.7204ZM68.6552 51.5688V51.8225C68.6552 53.8517 67.2601 55.1199 65.231 55.1199C63.2018 55.1199 61.9336 53.7248 61.9336 51.5688C61.9336 49.5397 63.3286 48.2714 65.3578 48.2714C67.387 48.2714 68.6552 49.5397 68.6552 51.5688ZM68.6552 58.4173V58.6709C68.6552 60.7001 67.2601 61.9684 65.231 61.9684C63.2018 61.9684 61.9336 60.5733 61.9336 58.4173C61.9336 56.3881 63.3286 55.1199 65.3578 55.1199C67.387 55.1199 68.6552 56.3881 68.6552 58.4173ZM68.6552 65.2658V65.3926C68.6552 67.4218 67.2601 68.69 65.231 68.69C63.2018 68.69 61.9336 67.2949 61.9336 65.2658C61.9336 63.2366 63.2018 61.9684 65.3578 61.9684C67.2601 61.9684 68.6552 63.3634 68.6552 65.2658ZM75.5037 44.8472C75.5037 46.8764 74.2354 48.2714 72.0794 48.2714C70.0503 48.2714 68.6552 47.0032 68.6552 44.8472C68.6552 42.818 69.9234 41.423 72.0794 41.423C74.1086 41.423 75.5037 42.818 75.5037 44.8472ZM75.5037 51.6957C75.5037 53.7248 74.2354 55.1199 72.0794 55.1199C70.0503 55.1199 68.6552 53.8517 68.6552 51.6957C68.6552 49.6665 69.9234 48.2714 72.0794 48.2714C74.1086 48.2714 75.5037 49.6665 75.5037 51.6957ZM75.5037 58.5441C75.5037 60.5733 74.2354 61.9684 72.0794 61.9684C70.0503 61.9684 68.6552 60.7001 68.6552 58.5441C68.6552 56.515 69.9234 55.1199 72.0794 55.1199C74.1086 55.1199 75.5037 56.515 75.5037 58.5441ZM82.3521 17.5802C82.3521 19.6094 81.0839 21.0044 78.9279 21.0044C76.8987 21.0044 75.5037 19.7362 75.5037 17.5802C75.5037 15.551 76.7719 14.1559 78.9279 14.1559C80.9571 14.1559 82.3521 15.551 82.3521 17.5802ZM82.3521 24.3018V24.4286C82.3521 26.4578 80.9571 27.726 78.8011 27.726C76.7719 27.726 75.5037 26.331 75.5037 24.3018C75.5037 22.2726 76.8987 21.0044 79.0547 21.0044C81.0839 21.0044 82.3521 22.2726 82.3521 24.3018ZM82.3521 31.1503C82.3521 33.1795 81.0839 34.5745 78.9279 34.5745C76.8987 34.5745 75.5037 33.3063 75.5037 31.1503C75.5037 29.1211 76.7719 27.726 78.9279 27.726C80.9571 27.726 82.3521 29.1211 82.3521 31.1503ZM82.3521 37.9987C82.3521 40.0279 81.0839 41.423 78.9279 41.423C76.8987 41.423 75.5037 40.1547 75.5037 37.9987C75.5037 35.9696 76.7719 34.5745 78.9279 34.5745C80.9571 34.5745 82.3521 35.9696 82.3521 37.9987ZM82.3521 24.4286V24.3018C82.3521 22.2726 83.7472 21.0044 85.9032 21.0044C87.9324 21.0044 89.2006 22.3995 89.2006 24.4286C89.2006 26.4578 87.8055 27.726 85.6495 27.726C83.6204 27.726 82.3521 26.4578 82.3521 24.4286ZM82.3521 31.1503C82.3521 29.1211 83.6204 27.726 85.7764 27.726C87.8055 27.726 89.2006 28.9943 89.2006 31.1503C89.2006 33.1795 87.9324 34.5745 85.7764 34.5745C83.7472 34.5745 82.3521 33.1795 82.3521 31.1503ZM82.3521 37.9987C82.3521 35.9696 83.6204 34.5745 85.7764 34.5745C87.8055 34.5745 89.2006 35.8427 89.2006 37.9987C89.2006 40.0279 87.9324 41.423 85.7764 41.423C83.7472 41.423 82.3521 40.0279 82.3521 37.9987ZM82.3521 44.8472C82.3521 46.8764 81.0839 48.2714 78.9279 48.2714C76.8987 48.2714 75.5037 47.0032 75.5037 44.8472C75.5037 42.818 76.7719 41.423 78.9279 41.423C80.9571 41.423 82.3521 42.818 82.3521 44.8472Z" fill="#CC5200"/>
</svg>
