<svg width="63" height="90" viewBox="0 0 63 90" fill="none" xmlns="http://www.w3.org/2000/svg">
<path d="M0.955298 3.88322C0.955298 1.85405 2.22353 0.458991 4.37953 0.458991C6.4087 0.458991 7.80376 1.72722 7.80376 3.88322C7.80376 5.9124 6.53553 7.30745 4.37953 7.30745C2.35036 7.30745 0.955298 5.9124 0.955298 3.88322ZM41.9192 3.88322C41.9192 5.9124 40.651 7.30745 38.495 7.30745C36.4658 7.30745 35.0708 5.9124 35.0708 3.88322C35.0708 1.85405 36.339 0.458991 38.495 0.458991C40.5242 0.458991 41.9192 1.72722 41.9192 3.88322ZM41.9192 3.88322C41.9192 1.85405 43.1875 0.458991 45.3435 0.458991C47.3726 0.458991 48.7677 1.72722 48.7677 3.88322C48.7677 5.9124 47.4995 7.30745 45.3435 7.30745C43.3143 7.30745 41.9192 5.9124 41.9192 3.88322ZM7.80376 3.88322C7.80376 1.85405 9.07199 0.458991 11.228 0.458991C13.2572 0.458991 14.6522 1.72722 14.6522 3.88322C14.6522 5.9124 13.384 7.30745 11.228 7.30745C9.19882 7.30745 7.80376 5.9124 7.80376 3.88322ZM7.80376 10.7317C7.80376 12.7609 6.53553 14.1559 4.37953 14.1559C2.35036 14.1559 0.955298 12.8877 0.955298 10.7317C0.955298 8.70251 2.22353 7.30745 4.37953 7.30745C6.4087 7.30745 7.80376 8.70251 7.80376 10.7317ZM41.9192 10.7317C41.9192 8.70251 43.1875 7.30745 45.3435 7.30745C47.3726 7.30745 48.7677 8.70251 48.7677 10.7317C48.7677 12.7609 47.4995 14.1559 45.3435 14.1559C43.3143 14.1559 41.9192 12.8877 41.9192 10.7317ZM35.0708 10.7317C35.0708 8.70251 36.339 7.30745 38.495 7.30745C40.5242 7.30745 41.9192 8.70251 41.9192 10.7317C41.9192 12.7609 40.651 14.1559 38.495 14.1559C36.4658 14.1559 35.0708 12.8877 35.0708 10.7317ZM14.6522 10.7317C14.6522 12.7609 13.384 14.1559 11.228 14.1559C9.19882 14.1559 7.80376 12.8877 7.80376 10.7317C7.80376 8.70251 9.07199 7.30745 11.228 7.30745C13.2572 7.30745 14.6522 8.70251 14.6522 10.7317ZM41.9192 17.5802C41.9192 19.6093 40.651 21.0044 38.495 21.0044C36.4658 21.0044 35.0708 19.7361 35.0708 17.5802C35.0708 15.551 36.339 14.1559 38.495 14.1559C40.5242 14.1559 41.9192 15.551 41.9192 17.5802ZM21.5007 17.5802C21.5007 19.6093 20.2324 21.0044 18.0765 21.0044C16.0473 21.0044 14.6522 19.7361 14.6522 17.5802C14.6522 15.551 15.9205 14.1559 18.0765 14.1559C20.1056 14.1559 21.5007 15.551 21.5007 17.5802ZM14.6522 17.5802C14.6522 19.6093 13.384 21.0044 11.228 21.0044C9.19882 21.0044 7.80376 19.7361 7.80376 17.5802C7.80376 15.551 9.07199 14.1559 11.228 14.1559C13.2572 14.1559 14.6522 15.551 14.6522 17.5802ZM48.7677 17.5802C48.7677 19.6093 47.4995 21.0044 45.3435 21.0044C43.3143 21.0044 41.9192 19.7361 41.9192 17.5802C41.9192 15.551 43.1875 14.1559 45.3435 14.1559C47.3726 14.1559 48.7677 15.551 48.7677 17.5802ZM21.5007 24.3018V24.4286C21.5007 26.4578 20.1056 27.726 17.9496 27.726C15.9205 27.726 14.6522 26.331 14.6522 24.3018C14.6522 22.2726 16.0473 21.0044 18.2033 21.0044C20.2324 21.0044 21.5007 22.2726 21.5007 24.3018ZM14.6522 24.3018V24.4286C14.6522 26.4578 13.2572 27.726 11.1012 27.726C9.07199 27.726 7.80376 26.331 7.80376 24.3018C7.80376 22.2726 9.19882 21.0044 11.3548 21.0044C13.384 21.0044 14.6522 22.2726 14.6522 24.3018ZM41.9192 24.3018V24.4286C41.9192 26.4578 40.5242 27.726 38.3682 27.726C36.339 27.726 35.0708 26.331 35.0708 24.3018C35.0708 22.2726 36.4658 21.0044 38.6218 21.0044C40.651 21.0044 41.9192 22.2726 41.9192 24.3018ZM48.7677 24.3018V24.4286C48.7677 26.4578 47.3726 27.726 45.2167 27.726C43.1875 27.726 41.9192 26.331 41.9192 24.3018C41.9192 22.2726 43.3143 21.0044 45.4703 21.0044C47.4995 21.0044 48.7677 22.2726 48.7677 24.3018ZM41.9192 31.1502C41.9192 33.1794 40.651 34.5745 38.495 34.5745C36.4658 34.5745 35.0708 33.3062 35.0708 31.1502C35.0708 29.1211 36.339 27.726 38.495 27.726C40.5242 27.726 41.9192 29.1211 41.9192 31.1502ZM21.5007 31.1502C21.5007 33.1794 20.2324 34.5745 18.0765 34.5745C16.0473 34.5745 14.6522 33.3062 14.6522 31.1502C14.6522 29.1211 15.9205 27.726 18.0765 27.726C20.1056 27.726 21.5007 29.1211 21.5007 31.1502ZM28.3491 31.1502C28.3491 33.1794 27.0809 34.5745 24.9249 34.5745C22.8957 34.5745 21.5007 33.3062 21.5007 31.1502C21.5007 29.1211 22.7689 27.726 24.9249 27.726C26.9541 27.726 28.3491 29.1211 28.3491 31.1502ZM48.7677 31.1502C48.7677 33.1794 47.4995 34.5745 45.3435 34.5745C43.3143 34.5745 41.9192 33.3062 41.9192 31.1502C41.9192 29.1211 43.1875 27.726 45.3435 27.726C47.3726 27.726 48.7677 29.1211 48.7677 31.1502ZM41.9192 37.9987C41.9192 40.0279 40.651 41.4229 38.495 41.4229C36.4658 41.4229 35.0708 40.1547 35.0708 37.9987C35.0708 35.9695 36.339 34.5745 38.495 34.5745C40.5242 34.5745 41.9192 35.9695 41.9192 37.9987ZM28.3491 37.9987C28.3491 40.0279 27.0809 41.4229 24.9249 41.4229C22.8957 41.4229 21.5007 40.1547 21.5007 37.9987C21.5007 35.9695 22.7689 34.5745 24.9249 34.5745C26.9541 34.5745 28.3491 35.9695 28.3491 37.9987ZM21.5007 37.9987C21.5007 40.0279 20.2324 41.4229 18.0765 41.4229C16.0473 41.4229 14.6522 40.1547 14.6522 37.9987C14.6522 35.9695 15.9205 34.5745 18.0765 34.5745C20.1056 34.5745 21.5007 35.9695 21.5007 37.9987ZM35.0708 37.8719V38.1255C35.0708 40.1547 33.6757 41.4229 31.6466 41.4229C29.6174 41.4229 28.3491 40.0279 28.3491 37.8719C28.3491 35.8427 29.7442 34.5745 31.7734 34.5745C33.8026 34.5745 35.0708 35.8427 35.0708 37.8719ZM48.7677 37.9987C48.7677 40.0279 47.4995 41.4229 45.3435 41.4229C43.3143 41.4229 41.9192 40.1547 41.9192 37.9987C41.9192 35.9695 43.1875 34.5745 45.3435 34.5745C47.3726 34.5745 48.7677 35.9695 48.7677 37.9987ZM14.6522 44.8472C14.6522 42.818 15.9205 41.4229 18.0765 41.4229C20.1056 41.4229 21.5007 42.818 21.5007 44.8472C21.5007 46.8763 20.2324 48.2714 18.0765 48.2714C16.0473 48.2714 14.6522 47.0032 14.6522 44.8472ZM7.80376 44.8472C7.80376 42.818 9.07199 41.4229 11.228 41.4229C13.2572 41.4229 14.6522 42.818 14.6522 44.8472C14.6522 46.8763 13.384 48.2714 11.228 48.2714C9.19882 48.2714 7.80376 47.0032 7.80376 44.8472ZM21.5007 44.8472C21.5007 42.818 22.7689 41.4229 24.9249 41.4229C26.9541 41.4229 28.3491 42.818 28.3491 44.8472C28.3491 46.8763 27.0809 48.2714 24.9249 48.2714C22.8957 48.2714 21.5007 47.0032 21.5007 44.8472ZM55.6162 44.8472C55.6162 46.8763 54.3479 48.2714 52.1919 48.2714C50.1628 48.2714 48.7677 47.0032 48.7677 44.8472C48.7677 42.818 50.0359 41.4229 52.1919 41.4229C54.2211 41.4229 55.6162 42.818 55.6162 44.8472ZM41.9192 51.6956C41.9192 49.6665 43.1875 48.2714 45.3435 48.2714C47.3726 48.2714 48.7677 49.6665 48.7677 51.6956C48.7677 53.7248 47.4995 55.1199 45.3435 55.1199C43.3143 55.1199 41.9192 53.8516 41.9192 51.6956ZM35.0708 51.6956C35.0708 49.6665 36.339 48.2714 38.495 48.2714C40.5242 48.2714 41.9192 49.6665 41.9192 51.6956C41.9192 53.7248 40.651 55.1199 38.495 55.1199C36.4658 55.1199 35.0708 53.8516 35.0708 51.6956ZM7.80376 51.6956C7.80376 53.7248 6.53553 55.1199 4.37953 55.1199C2.35036 55.1199 0.955298 53.8516 0.955298 51.6956C0.955298 49.6665 2.22353 48.2714 4.37953 48.2714C6.4087 48.2714 7.80376 49.6665 7.80376 51.6956ZM21.5007 51.6956C21.5007 53.7248 20.2324 55.1199 18.0765 55.1199C16.0473 55.1199 14.6522 53.8516 14.6522 51.6956C14.6522 49.6665 15.9205 48.2714 18.0765 48.2714C20.1056 48.2714 21.5007 49.6665 21.5007 51.6956ZM55.6162 51.6956C55.6162 49.6665 56.8844 48.2714 59.0404 48.2714C61.0696 48.2714 62.4646 49.5396 62.4646 51.6956C62.4646 53.7248 61.1964 55.1199 59.0404 55.1199C57.0112 55.1199 55.6162 53.7248 55.6162 51.6956ZM48.7677 51.6956C48.7677 49.6665 50.0359 48.2714 52.1919 48.2714C54.2211 48.2714 55.6162 49.6665 55.6162 51.6956C55.6162 53.7248 54.3479 55.1199 52.1919 55.1199C50.1628 55.1199 48.7677 53.8516 48.7677 51.6956ZM35.0708 51.5688V51.8225C35.0708 53.8516 33.6757 55.1199 31.6466 55.1199C29.6174 55.1199 28.3491 53.7248 28.3491 51.5688C28.3491 49.5396 29.7442 48.2714 31.7734 48.2714C33.8026 48.2714 35.0708 49.5396 35.0708 51.5688ZM21.5007 58.5441C21.5007 56.5149 22.7689 55.1199 24.9249 55.1199C26.9541 55.1199 28.3491 56.5149 28.3491 58.5441C28.3491 60.5733 27.0809 61.9683 24.9249 61.9683C22.8957 61.9683 21.5007 60.7001 21.5007 58.5441ZM55.6162 58.5441C55.6162 60.5733 54.3479 61.9683 52.1919 61.9683C50.1628 61.9683 48.7677 60.7001 48.7677 58.5441C48.7677 56.5149 50.0359 55.1199 52.1919 55.1199C54.2211 55.1199 55.6162 56.5149 55.6162 58.5441ZM14.6522 58.5441C14.6522 56.5149 15.9205 55.1199 18.0765 55.1199C20.1056 55.1199 21.5007 56.5149 21.5007 58.5441C21.5007 60.5733 20.2324 61.9683 18.0765 61.9683C16.0473 61.9683 14.6522 60.7001 14.6522 58.5441ZM7.80376 58.5441C7.80376 60.5733 6.53553 61.9683 4.37953 61.9683C2.35036 61.9683 0.955298 60.7001 0.955298 58.5441C0.955298 56.5149 2.22353 55.1199 4.37953 55.1199C6.4087 55.1199 7.80376 56.5149 7.80376 58.5441ZM55.6162 58.5441C55.6162 56.5149 56.8844 55.1199 59.0404 55.1199C61.0696 55.1199 62.4646 56.3881 62.4646 58.5441C62.4646 60.5733 61.1964 61.9683 59.0404 61.9683C57.0112 61.9683 55.6162 60.5733 55.6162 58.5441ZM28.3491 65.2657C28.3491 63.2366 29.6174 61.9683 31.7734 61.9683C33.6757 61.9683 35.0708 63.3634 35.0708 65.2657V65.3926C35.0708 67.4217 33.6757 68.69 31.6466 68.69C29.6174 68.69 28.3491 67.2949 28.3491 65.2657ZM35.0708 65.2657C35.0708 63.2366 36.4658 61.9683 38.6218 61.9683C40.651 61.9683 41.9192 63.2366 41.9192 65.2657V65.3926C41.9192 67.4217 40.5242 68.69 38.3682 68.69C36.339 68.69 35.0708 67.2949 35.0708 65.2657ZM7.80376 65.2657V65.3926C7.80376 67.4217 6.4087 68.69 4.25271 68.69C2.22353 68.69 0.955298 67.2949 0.955298 65.2657C0.955298 63.2366 2.35036 61.9683 4.50635 61.9683C6.53553 61.9683 7.80376 63.2366 7.80376 65.2657ZM41.9192 65.2657C41.9192 63.2366 43.3143 61.9683 45.4703 61.9683C47.4995 61.9683 48.7677 63.2366 48.7677 65.2657V65.3926C48.7677 67.4217 47.3726 68.69 45.2167 68.69C43.1875 68.69 41.9192 67.2949 41.9192 65.2657ZM24.7981 68.69C22.7689 68.69 21.5007 67.2949 21.5007 65.2657C21.5007 63.2366 22.8957 61.9683 25.0517 61.9683C27.0809 61.9683 28.3491 63.2366 28.3491 65.2657V65.3926C28.3491 67.4217 26.9541 68.69 24.7981 68.69ZM14.6522 65.2657V65.3926C14.6522 67.4217 13.2572 68.69 11.1012 68.69C9.07199 68.69 7.80376 67.2949 7.80376 65.2657C7.80376 63.2366 9.19882 61.9683 11.3548 61.9683C13.384 61.9683 14.6522 63.2366 14.6522 65.2657ZM48.7677 65.2657C48.7677 63.2366 50.1628 61.9683 52.3188 61.9683C54.3479 61.9683 55.6162 63.2366 55.6162 65.2657C55.6162 63.2366 57.0112 61.9683 59.1672 61.9683C61.1964 61.9683 62.4646 63.3634 62.4646 65.3926C62.4646 67.4217 61.0696 68.69 58.9136 68.69C56.8844 68.69 55.6162 67.4217 55.6162 65.3926C55.6162 67.4217 54.2211 68.69 52.0651 68.69C50.0359 68.69 48.7677 67.2949 48.7677 65.2657ZM41.9192 72.1142C41.9192 74.1434 40.651 75.5384 38.495 75.5384C36.4658 75.5384 35.0708 74.2702 35.0708 72.1142C35.0708 70.085 36.339 68.69 38.495 68.69C40.5242 68.69 41.9192 70.085 41.9192 72.1142ZM35.0708 71.9874V72.241C35.0708 74.2702 33.6757 75.5384 31.6466 75.5384C29.6174 75.5384 28.3491 74.1434 28.3491 71.9874C28.3491 69.9582 29.7442 68.69 31.7734 68.69C33.8026 68.69 35.0708 69.9582 35.0708 71.9874ZM14.6522 72.1142C14.6522 70.085 15.9205 68.69 18.0765 68.69C20.1056 68.69 21.5007 70.085 21.5007 72.1142C21.5007 74.1434 20.2324 75.5384 18.0765 75.5384C16.0473 75.5384 14.6522 74.2702 14.6522 72.1142ZM48.7677 72.1142C48.7677 74.1434 47.4995 75.5384 45.3435 75.5384C43.3143 75.5384 41.9192 74.2702 41.9192 72.1142C41.9192 70.085 43.1875 68.69 45.3435 68.69C47.3726 68.69 48.7677 70.085 48.7677 72.1142ZM28.3491 72.1142C28.3491 74.1434 27.0809 75.5384 24.9249 75.5384C22.8957 75.5384 21.5007 74.2702 21.5007 72.1142C21.5007 70.085 22.7689 68.69 24.9249 68.69C26.9541 68.69 28.3491 70.085 28.3491 72.1142ZM55.6162 72.1142C55.6162 74.1434 54.3479 75.5384 52.1919 75.5384C50.1628 75.5384 48.7677 74.2702 48.7677 72.1142C48.7677 70.085 50.0359 68.69 52.1919 68.69C54.2211 68.69 55.6162 70.085 55.6162 72.1142ZM7.80376 72.1142C7.80376 70.085 9.07199 68.69 11.228 68.69C13.2572 68.69 14.6522 70.085 14.6522 72.1142C14.6522 74.1434 13.384 75.5384 11.228 75.5384C9.19882 75.5384 7.80376 74.2702 7.80376 72.1142ZM55.6162 72.1142C55.6162 70.085 56.8844 68.69 59.0404 68.69C61.0696 68.69 62.4646 69.9582 62.4646 72.1142C62.4646 74.1434 61.1964 75.5384 59.0404 75.5384C57.0112 75.5384 55.6162 74.1434 55.6162 72.1142ZM41.9192 78.9627C41.9192 80.9918 40.651 82.3869 38.495 82.3869C36.4658 82.3869 35.0708 81.1187 35.0708 78.9627C35.0708 76.9335 36.339 75.5384 38.495 75.5384C40.5242 75.5384 41.9192 76.9335 41.9192 78.9627ZM35.0708 78.8358V79.0895C35.0708 81.1187 33.6757 82.3869 31.6466 82.3869C29.6174 82.3869 28.3491 80.9918 28.3491 78.8358C28.3491 76.8067 29.7442 75.5384 31.7734 75.5384C33.8026 75.5384 35.0708 76.8067 35.0708 78.8358ZM14.6522 78.9627C14.6522 80.9918 13.384 82.3869 11.228 82.3869C9.19882 82.3869 7.80376 81.1187 7.80376 78.9627C7.80376 76.9335 9.07199 75.5384 11.228 75.5384C13.2572 75.5384 14.6522 76.9335 14.6522 78.9627ZM21.5007 78.9627C21.5007 76.9335 22.7689 75.5384 24.9249 75.5384C26.9541 75.5384 28.3491 76.9335 28.3491 78.9627C28.3491 80.9918 27.0809 82.3869 24.9249 82.3869C22.8957 82.3869 21.5007 81.1187 21.5007 78.9627ZM48.7677 78.9627C48.7677 80.9918 47.4995 82.3869 45.3435 82.3869C43.3143 82.3869 41.9192 81.1187 41.9192 78.9627C41.9192 76.9335 43.1875 75.5384 45.3435 75.5384C47.3726 75.5384 48.7677 76.9335 48.7677 78.9627ZM14.6522 78.9627C14.6522 76.9335 15.9205 75.5384 18.0765 75.5384C20.1056 75.5384 21.5007 76.9335 21.5007 78.9627C21.5007 80.9918 20.2324 82.3869 18.0765 82.3869C16.0473 82.3869 14.6522 81.1187 14.6522 78.9627ZM55.6162 78.9627C55.6162 80.9918 54.3479 82.3869 52.1919 82.3869C50.1628 82.3869 48.7677 81.1187 48.7677 78.9627C48.7677 76.9335 50.0359 75.5384 52.1919 75.5384C54.2211 75.5384 55.6162 76.9335 55.6162 78.9627ZM28.3491 85.9379V85.6843C28.3491 83.6551 29.7442 82.3869 31.7734 82.3869C33.8026 82.3869 35.0708 83.7819 35.0708 85.9379C35.0708 87.9671 33.6757 89.2354 31.6466 89.2354C29.6174 89.2354 28.3491 87.9671 28.3491 85.9379ZM35.0708 85.8111C35.0708 83.7819 36.339 82.3869 38.495 82.3869C40.5242 82.3869 41.9192 83.6551 41.9192 85.8111C41.9192 87.8403 40.651 89.2354 38.495 89.2354C36.4658 89.2354 35.0708 87.8403 35.0708 85.8111ZM21.5007 85.8111C21.5007 83.7819 22.7689 82.3869 24.9249 82.3869C26.9541 82.3869 28.3491 83.6551 28.3491 85.8111C28.3491 87.8403 27.0809 89.2354 24.9249 89.2354C22.8957 89.2354 21.5007 87.8403 21.5007 85.8111ZM14.6522 85.8111C14.6522 83.7819 15.9205 82.3869 18.0765 82.3869C20.1056 82.3869 21.5007 83.6551 21.5007 85.8111C21.5007 87.8403 20.2324 89.2354 18.0765 89.2354C16.0473 89.2354 14.6522 87.8403 14.6522 85.8111ZM41.9192 85.8111C41.9192 83.7819 43.1875 82.3869 45.3435 82.3869C47.3726 82.3869 48.7677 83.6551 48.7677 85.8111C48.7677 87.8403 47.4995 89.2354 45.3435 89.2354C43.3143 89.2354 41.9192 87.8403 41.9192 85.8111Z" fill="#CC5200"/>
</svg>
