<?xml version="1.0" encoding="UTF-8"?>
<svg viewBox="0 0 566 149" xmlns="http://www.w3.org/2000/svg">
<path d="m23.591 6.1971c0-3.3889 2.3299-5.7188 5.7188-5.7188 3.6008 0 5.7188 2.3299 5.7188 5.7188 0 3.6007-2.3298 5.7188-5.7188 5.7188-3.6007 0-5.7188-2.3299-5.7188-5.7188zm11.438 0c0-3.3889 2.3299-5.7188 5.7188-5.7188 3.6008 0 5.7188 2.3299 5.7188 5.7188 0 3.6007-2.3298 5.7188-5.7188 5.7188-3.6007 0-5.7188-2.3299-5.7188-5.7188zm11.438 0c0-3.3889 2.3299-5.7188 5.7189-5.7188 3.6007 0 5.7188 2.3299 5.7188 5.7188 0 3.6007-2.3299 5.7188-5.7188 5.7188-3.6008 0-5.7189-2.3299-5.7189-5.7188zm11.438 0c0-3.3889 2.3298-5.7188 5.7188-5.7188 3.6007 0 5.7188 2.3299 5.7188 5.7188 0 3.6007-2.3299 5.7188-5.7188 5.7188-3.6008 0-5.7188-2.3299-5.7188-5.7188zm11.438 0c0-3.3889 2.3299-5.7188 5.7188-5.7188 3.6007 0 5.7188 2.3299 5.7188 5.7188 0 3.6007-2.3299 5.7188-5.7188 5.7188-3.6008 0-5.7188-2.3299-5.7188-5.7188zm11.438 0c0-3.3889 2.3299-5.7188 5.7188-5.7188 3.6007 0 5.7188 2.3299 5.7188 5.7188 0 3.6007-2.3299 5.7188-5.7188 5.7188-3.6007 0-5.7188-2.3299-5.7188-5.7188zm-45.75 11.438c0 3.3889-2.3298 5.7188-5.7188 5.7188-3.3889 0-5.2952-1.6945-5.9306-4.448-0.4236 2.7535-2.5417 4.448-5.507 4.448-3.6007 0-5.7188-2.3299-5.7188-5.7188 0-3.6007 2.3299-5.7188 5.7188-5.7188 3.1771 0 5.0834 1.6945 5.7188 4.448 0.4236-2.7535 2.5417-4.448 5.507-4.448 3.8126 0 5.9306 2.3299 5.9306 5.7188zm34.313 0c0-3.3889 2.3299-5.7188 5.7188-5.7188 3.6007 0 5.7188 2.3299 5.7188 5.7188 0 3.6007-2.3299 5.7188-5.7188 5.7188-3.6008 0-5.7188-2.3299-5.7188-5.7188zm-11.438 0c0-3.3889 2.3298-5.7188 5.7188-5.7188 3.6007 0 5.7188 2.3299 5.7188 5.7188 0 3.6007-2.3299 5.7188-5.7188 5.7188-3.6008 0-5.7188-2.3299-5.7188-5.7188zm-11.438 0c0-3.3889 2.3299-5.7188 5.7189-5.7188 3.6007 0 5.7188 2.3299 5.7188 5.7188 0 3.6007-2.3299 5.7188-5.7188 5.7188-3.6008 0-5.7189-2.3299-5.7189-5.7188zm-11.438 0c0-3.3889 2.3299-5.7188 5.7188-5.7188 3.6008 0 5.7188 2.3299 5.7188 5.7188 0 3.6007-2.3298 5.7188-5.7188 5.7188-3.6007 0-5.7188-2.3299-5.7188-5.7188zm57.188 0c0 3.3889-2.3299 5.7188-5.7188 5.7188-3.6007 0-5.7188-2.3299-5.7188-5.7188 0-3.6007 2.3299-5.7188 5.7188-5.7188 3.6007 0 5.7188 2.3299 5.7188 5.7188zm11.226-0.2118v0.4236c0 3.3889-2.118 5.507-5.5072 5.507-3.3889 0-5.7188-2.1181-5.7188-5.507 0-3.6007 2.1181-5.9306 5.507-5.9306 3.389 0 5.719 2.1181 5.719 5.507zm-91.289 11.438v0.4236c0 3.3889-2.1181 5.507-5.507 5.507-3.3889 0-5.7188-2.1181-5.7188-5.507 0-3.6007 2.1181-5.9306 5.507-5.9306s5.7188 2.1181 5.7188 5.507zm22.663 0.2118c0 3.3889-2.3299 5.7188-5.7188 5.7188-3.6007 0-5.7188-2.3299-5.7188-5.7188 0-3.6007 2.3299-5.7188 5.7188-5.7188 3.6008 0 5.7188 2.3299 5.7188 5.7188zm68.626 0c0 3.6007-2.33 5.7188-5.719 5.7188-3.1771 0-5.0834-1.6944-5.7188-4.4479-0.4236 2.7535-2.5417 4.4479-5.507 4.4479-3.6007 0-5.7188-2.3299-5.7188-5.7188 0-3.6007 2.3299-5.7188 5.7188-5.7188 3.1771 0 5.0834 1.6945 5.7188 4.448 0.4236-2.7535 2.5417-4.448 5.507-4.448 3.601 0 5.719 2.3299 5.719 5.7188zm-80.064-0.2118v0.4236c0 3.3889-2.1181 5.507-5.507 5.507s-5.7188-2.1181-5.7188-5.507c0-3.6007 2.1181-5.9306 5.507-5.9306s5.7188 2.1181 5.7188 5.507zm80.064 0.2118c0-3.3889 2.33-5.7188 5.719-5.7188 3.6 0 5.718 2.3299 5.718 5.7188 0 3.6007-2.329 5.7188-5.718 5.7188-3.601 0-5.719-2.3299-5.719-5.7188zm-91.289 11.226v0.2118c0 3.3889-2.1181 5.507-5.507 5.507-3.6007 0-5.7188-2.1181-5.7188-5.507s2.1181-5.7188 5.507-5.7188 5.7188 2.1181 5.7188 5.507zm11.226 0v0.2118c0 3.3889-2.1181 5.507-5.507 5.507-3.6007 0-5.7188-2.1181-5.7188-5.507s2.1181-5.7188 5.507-5.7188 5.7188 2.1181 5.7188 5.507zm80.064 0.2118v-0.2118c0-3.3889 2.118-5.507 5.507-5.507 3.601 0 5.93 2.1181 5.93 5.507s-2.118 5.7188-5.507 5.7188c-3.6 0-5.93-2.1181-5.93-5.507zm-11.438 0v-0.2118c0-3.3889 2.1181-5.507 5.507-5.507 3.6008 0 5.9308 2.1181 5.9308 5.507s-2.118 5.7188-5.5072 5.7188c-3.6007 0-5.9306-2.1181-5.9306-5.507zm-79.852 11.014v0.4236c0 3.3889-2.1181 5.507-5.507 5.507-3.3889 0-5.7188-2.1181-5.7188-5.507 0-3.6007 2.1181-5.9306 5.507-5.9306s5.7188 2.1181 5.7188 5.507zm91.289 0.2118c0 3.6007-2.33 5.7188-5.719 5.7188-3.1771 0-5.0834-1.6944-5.7188-4.4479-0.4236 2.7535-2.5417 4.4479-5.507 4.4479-3.6007 0-5.7188-2.3299-5.7188-5.7188 0-3.6007 2.3299-5.7188 5.7188-5.7188 3.1771 0 5.0834 1.6945 5.7188 4.448 0.4236-2.7535 2.5417-4.448 5.507-4.448 3.601 0 5.719 2.3299 5.719 5.7188zm-80.064-0.2118v0.4236c0 3.3889-2.1181 5.507-5.507 5.507s-5.7188-2.1181-5.7188-5.507c0-3.6007 2.1181-5.9306 5.507-5.9306s5.7188 2.1181 5.7188 5.507zm80.064 0.2118c0-3.3889 2.33-5.7188 5.719-5.7188 3.6 0 5.718 2.3299 5.718 5.7188 0 3.6007-2.329 5.7188-5.718 5.7188-3.601 0-5.719-2.3299-5.719-5.7188zm-22.664 11.438c0 3.389-2.3299 5.7188-5.7188 5.7188-3.6008 0-5.7188-2.3298-5.7188-5.7188 0-3.6007 2.3299-5.7188 5.7188-5.7188 3.6007 0 5.7188 2.3299 5.7188 5.7188zm22.664-0.2118v0.4236c0 3.389-2.118 5.507-5.5072 5.507-3.3889 0-5.7188-2.118-5.7188-5.507 0-3.6007 2.1181-5.9306 5.507-5.9306 3.389 0 5.719 2.1181 5.719 5.507zm-11.226 0.2118c0 3.389-2.3299 5.7188-5.7188 5.7188-3.6007 0-5.7188-2.3298-5.7188-5.7188 0-3.6007 2.3299-5.7188 5.7188-5.7188 3.6007 0 5.7188 2.3299 5.7188 5.7188zm-22.875 11.438c0 3.389-2.3299 5.7188-5.7188 5.7188-3.6008 0-5.7188-2.3298-5.7188-5.7188 0-3.6007 2.3298-5.7188 5.7188-5.7188 3.6007 0 5.7188 2.3299 5.7188 5.7188zm11.438 0c0-3.6007 2.3299-5.7188 5.7188-5.7188 3.6007 0 5.7188 2.3299 5.7188 5.7188 0 3.389-2.3299 5.7188-5.7188 5.7188-3.6007 0-5.7188-2.3298-5.7188-5.7188zm-11.438 0c0-3.6007 2.3299-5.7188 5.7188-5.7188 3.6007 0 5.7188 2.3299 5.7188 5.7188 0 3.389-2.3299 5.7188-5.7188 5.7188-3.6008 0-5.7188-2.3298-5.7188-5.7188zm0 11.438c0-3.6008 2.3299-5.7189 5.7188-5.7189 3.6007 0 5.7188 2.3299 5.7188 5.7189 0 3.3889-2.3299 5.7188-5.7188 5.7188-3.6008 0-5.7188-2.3299-5.7188-5.7188zm-11.438 0c0 3.3889-2.3299 5.7188-5.7188 5.7188-3.6008 0-5.7189-2.3299-5.7189-5.7188 0-3.6008 2.3299-5.7189 5.7189-5.7189 3.6007 0 5.7188 2.3299 5.7188 5.7189zm0 0c0-3.6008 2.3298-5.7189 5.7188-5.7189 3.6007 0 5.7188 2.3299 5.7188 5.7189 0 3.3889-2.3299 5.7188-5.7188 5.7188-3.6008 0-5.7188-2.3299-5.7188-5.7188zm0 11.438c0-3.6008 2.3298-5.7188 5.7188-5.7188 3.6007 0 5.7188 2.3298 5.7188 5.7188 0 3.3888-2.3299 5.7188-5.7188 5.7188-3.6008 0-5.7188-2.33-5.7188-5.7188zm-11.438-0.2118v0.2118c0 3.3888-2.118 5.5068-5.507 5.5068-3.6007 0-5.9306-2.118-5.9306-5.5068 0-3.389 2.1181-5.7188 5.507-5.7188 3.6008 0 5.9306 2.118 5.9306 5.507zm0 0.2118c0-3.6008 2.3299-5.7188 5.7189-5.7188 3.6007 0 5.7188 2.3298 5.7188 5.7188 0 3.3888-2.3299 5.7188-5.7188 5.7188-3.6008 0-5.7189-2.33-5.7189-5.7188zm-11.438 11.226c0 3.389-2.3298 5.719-5.7188 5.719-3.6007 0-5.7188-2.33-5.7188-5.719 0-3.601 2.3299-5.719 5.7188-5.719 3.6008 0 5.7188 2.33 5.7188 5.719zm11.438 0c0 3.389-2.3298 5.719-5.7188 5.719-3.6007 0-5.7188-2.33-5.7188-5.719 0-3.601 2.3299-5.719 5.7188-5.719 3.6008 0 5.7188 2.33 5.7188 5.719zm11.438 0v0.212c0 3.389-2.1181 5.507-5.507 5.507-3.6008 0-5.9307-2.118-5.9307-5.507s2.1181-5.719 5.507-5.719c3.6008 0 5.9307 2.118 5.9307 5.507zm-22.875 11.438c0-3.601 2.3299-5.719 5.7188-5.719 3.6008 0 5.7188 2.33 5.7188 5.719 0 3.388-2.3298 5.718-5.7188 5.718-3.6007 0-5.7188-2.33-5.7188-5.718zm-11.438 0c0-3.601 2.3299-5.719 5.7188-5.719 3.6008 0 5.7188 2.33 5.7188 5.719 0 3.388-2.3298 5.718-5.7188 5.718-3.6007 0-5.7188-2.33-5.7188-5.718zm-11.438 0c0-3.601 2.3299-5.719 5.7188-5.719 3.6008 0 5.7188 2.33 5.7188 5.719 0 3.388-2.3299 5.718-5.7188 5.718-3.6007 0-5.7188-2.33-5.7188-5.718zm11.438 11.437c0 3.389-2.3299 5.719-5.7188 5.719-3.6007 0-5.7188-2.33-5.7188-5.719 0-3.601 2.3299-5.719 5.7188-5.719 3.6008 0 5.7188 2.33 5.7188 5.719zm-22.663 0.212v-0.424c0-3.389 2.1181-5.507 5.507-5.507s5.7188 2.118 5.7188 5.507c0 3.601-2.1181 5.931-5.507 5.931-3.3889 0-5.7188-2.118-5.7188-5.507zm34.101-0.212c0-3.389 2.3299-5.719 5.7188-5.719 3.6008 0 5.7188 2.33 5.7188 5.719 0 3.601-2.3298 5.719-5.7188 5.719-3.6007 0-5.7188-2.33-5.7188-5.719zm11.438 0c0-3.389 2.3299-5.719 5.7189-5.719 3.6007 0 5.7188 2.33 5.7188 5.719 0 3.601-2.3299 5.719-5.7188 5.719-3.6008 0-5.7189-2.33-5.7189-5.719zm11.438 0c0-3.389 2.3298-5.719 5.7188-5.719 3.6007 0 5.7188 2.33 5.7188 5.719 0 3.601-2.3299 5.719-5.7188 5.719-3.6008 0-5.7188-2.33-5.7188-5.719zm11.438 0c0-3.389 2.3299-5.719 5.7188-5.719 3.6007 0 5.7188 2.33 5.7188 5.719 0 3.601-2.3299 5.719-5.7188 5.719-3.6008 0-5.7188-2.33-5.7188-5.719zm11.438 0.212v-0.424c0-3.389 2.1181-5.507 5.507-5.507s5.7188 2.118 5.7188 5.507c0 3.601-2.1181 5.931-5.507 5.931s-5.7188-2.118-5.7188-5.507zm11.226-0.212c0-3.389 2.3299-5.719 5.7188-5.719 3.601 0 5.719 2.33 5.719 5.719 0 3.601-2.33 5.719-5.719 5.719-3.6007 0-5.7188-2.33-5.7188-5.719zm11.438 0c0-3.389 2.33-5.719 5.719-5.719 3.6 0 5.718 2.33 5.718 5.719 0 3.601-2.329 5.719-5.718 5.719-3.601 0-5.719-2.33-5.719-5.719zm-68.414 0c0 3.389-2.3298 5.719-5.7188 5.719-3.6007 0-5.7188-2.33-5.7188-5.719 0-3.601 2.3299-5.719 5.7188-5.719 3.6008 0 5.7188 2.33 5.7188 5.719zm22.875 11.438c0-3.389 2.3298-5.719 5.7188-5.719 3.6007 0 5.7188 2.33 5.7188 5.719 0 3.601-2.3299 5.719-5.7188 5.719-3.6008 0-5.7188-2.33-5.7188-5.719zm-22.875 0c0-3.389 2.3299-5.719 5.7188-5.719 3.6008 0 5.7188 2.33 5.7188 5.719 0 3.601-2.3298 5.719-5.7188 5.719-3.6007 0-5.7188-2.33-5.7188-5.719zm68.414 0c0-3.389 2.33-5.719 5.719-5.719 3.6 0 5.718 2.33 5.718 5.719 0 3.601-2.329 5.719-5.718 5.719-3.601 0-5.719-2.33-5.719-5.719zm-56.976 0c0-3.389 2.3299-5.719 5.7189-5.719 3.6007 0 5.7188 2.33 5.7188 5.719 0 3.601-2.3299 5.719-5.7188 5.719-3.6008 0-5.7189-2.33-5.7189-5.719zm-34.313 0c0-3.389 2.3299-5.719 5.7188-5.719 3.6008 0 5.7188 2.33 5.7188 5.719 0 3.601-2.3299 5.719-5.7188 5.719-3.6007 0-5.7188-2.33-5.7188-5.719zm57.188 0c0-3.389 2.3299-5.719 5.7188-5.719 3.6007 0 5.7188 2.33 5.7188 5.719 0 3.601-2.3299 5.719-5.7188 5.719-3.6008 0-5.7188-2.33-5.7188-5.719zm11.438 0.212v-0.424c0-3.389 2.1181-5.507 5.507-5.507s5.7188 2.118 5.7188 5.507c0 3.601-2.1181 5.931-5.507 5.931s-5.7188-2.118-5.7188-5.507zm11.226-0.212c0-3.389 2.3299-5.719 5.7188-5.719 3.601 0 5.719 2.33 5.719 5.719 0 3.601-2.33 5.719-5.719 5.719-3.6007 0-5.7188-2.33-5.7188-5.719zm-91.077 0.212v-0.424c0-3.389 2.1181-5.507 5.507-5.507s5.7188 2.118 5.7188 5.507c0 3.601-2.1181 5.931-5.507 5.931-3.3889 0-5.7188-2.118-5.7188-5.507zm22.663-0.212c0-3.389 2.3299-5.719 5.7188-5.719 3.6008 0 5.7188 2.33 5.7188 5.719 0 3.601-2.3298 5.719-5.7188 5.719-3.6007 0-5.7188-2.33-5.7188-5.719zm125.35-136.83c0-3.3889 2.33-5.7188 5.719-5.7188 3.601 0 5.719 2.3299 5.719 5.7188 0 3.6007-2.33 5.7188-5.719 5.7188-3.601 0-5.719-2.3299-5.719-5.7188zm11.438 0c0-3.3889 2.33-5.7188 5.719-5.7188 3.601 0 5.719 2.3299 5.719 5.7188 0 3.6007-2.33 5.7188-5.719 5.7188-3.601 0-5.719-2.3299-5.719-5.7188zm11.438 0c0-3.3889 2.33-5.7188 5.718-5.7188 3.601 0 5.719 2.3299 5.719 5.7188 0 3.6007-2.33 5.7188-5.719 5.7188-3.6 0-5.718-2.3299-5.718-5.7188zm11.437 0c0-3.3889 2.33-5.7188 5.719-5.7188 3.601 0 5.719 2.3299 5.719 5.7188 0 3.6007-2.33 5.7188-5.719 5.7188-3.601 0-5.719-2.3299-5.719-5.7188zm11.438 0c0-3.3889 2.33-5.7188 5.719-5.7188 3.6 0 5.718 2.3299 5.718 5.7188 0 3.6007-2.329 5.7188-5.718 5.7188-3.601 0-5.719-2.3299-5.719-5.7188zm11.437 0c0-3.3889 2.33-5.7188 5.719-5.7188 3.601 0 5.719 2.3299 5.719 5.7188 0 3.6007-2.33 5.7188-5.719 5.7188-3.6 0-5.719-2.3299-5.719-5.7188zm-45.75 11.438c0 3.3889-2.33 5.7188-5.719 5.7188s-5.295-1.6945-5.93-4.448c-0.424 2.7535-2.542 4.448-5.507 4.448-3.601 0-5.719-2.3299-5.719-5.7188 0-3.6007 2.33-5.7188 5.719-5.7188 3.177 0 5.083 1.6945 5.718 4.448 0.424-2.7535 2.542-4.448 5.507-4.448 3.813 0 5.931 2.3299 5.931 5.7188zm34.313 0c0-3.3889 2.33-5.7188 5.719-5.7188 3.6 0 5.718 2.3299 5.718 5.7188 0 3.6007-2.329 5.7188-5.718 5.7188-3.601 0-5.719-2.3299-5.719-5.7188zm-11.438 0c0-3.3889 2.33-5.7188 5.719-5.7188 3.601 0 5.719 2.3299 5.719 5.7188 0 3.6007-2.33 5.7188-5.719 5.7188-3.601 0-5.719-2.3299-5.719-5.7188zm-11.437 0c0-3.3889 2.33-5.7188 5.718-5.7188 3.601 0 5.719 2.3299 5.719 5.7188 0 3.6007-2.33 5.7188-5.719 5.7188-3.6 0-5.718-2.3299-5.718-5.7188zm-11.438 0c0-3.3889 2.33-5.7188 5.719-5.7188 3.601 0 5.719 2.3299 5.719 5.7188 0 3.6007-2.33 5.7188-5.719 5.7188-3.601 0-5.719-2.3299-5.719-5.7188zm57.188 0c0 3.3889-2.33 5.7188-5.719 5.7188-3.6 0-5.719-2.3299-5.719-5.7188 0-3.6007 2.33-5.7188 5.719-5.7188 3.601 0 5.719 2.3299 5.719 5.7188zm11.226-0.2118v0.4236c0 3.3889-2.118 5.507-5.507 5.507s-5.719-2.1181-5.719-5.507c0-3.6007 2.118-5.9306 5.507-5.9306s5.719 2.1181 5.719 5.507zm-91.289 11.438v0.4236c0 3.3889-2.118 5.507-5.507 5.507s-5.719-2.1181-5.719-5.507c0-3.6007 2.118-5.9306 5.507-5.9306s5.719 2.1181 5.719 5.507zm22.663 0.2118c0 3.3889-2.33 5.7188-5.719 5.7188-3.6 0-5.718-2.3299-5.718-5.7188 0-3.6007 2.329-5.7188 5.718-5.7188 3.601 0 5.719 2.3299 5.719 5.7188zm68.626 0c0 3.6007-2.33 5.7188-5.719 5.7188-3.177 0-5.083-1.6944-5.719-4.4479-0.423 2.7535-2.541 4.4479-5.507 4.4479-3.6 0-5.719-2.3299-5.719-5.7188 0-3.6007 2.33-5.7188 5.719-5.7188 3.177 0 5.084 1.6945 5.719 4.448 0.424-2.7535 2.542-4.448 5.507-4.448 3.601 0 5.719 2.3299 5.719 5.7188zm-80.063-0.2118v0.4236c0 3.3889-2.118 5.507-5.507 5.507s-5.719-2.1181-5.719-5.507c0-3.6007 2.118-5.9306 5.507-5.9306s5.719 2.1181 5.719 5.507zm80.063 0.2118c0-3.3889 2.33-5.7188 5.719-5.7188 3.6 0 5.718 2.3299 5.718 5.7188 0 3.6007-2.329 5.7188-5.718 5.7188-3.601 0-5.719-2.3299-5.719-5.7188zm-91.289 11.226v0.2118c0 3.3889-2.118 5.507-5.507 5.507-3.601 0-5.719-2.1181-5.719-5.507s2.118-5.7188 5.507-5.7188 5.719 2.1181 5.719 5.507zm11.226 0v0.2118c0 3.3889-2.118 5.507-5.507 5.507-3.601 0-5.719-2.1181-5.719-5.507s2.118-5.7188 5.507-5.7188 5.719 2.1181 5.719 5.507zm80.063 0.2118v-0.2118c0-3.3889 2.118-5.507 5.507-5.507 3.601 0 5.93 2.1181 5.93 5.507s-2.118 5.7188-5.507 5.7188c-3.6 0-5.93-2.1181-5.93-5.507zm-11.438 0v-0.2118c0-3.3889 2.118-5.507 5.507-5.507 3.601 0 5.931 2.1181 5.931 5.507s-2.118 5.7188-5.507 5.7188c-3.601 0-5.931-2.1181-5.931-5.507zm-79.851 11.014v0.4236c0 3.3889-2.118 5.507-5.507 5.507s-5.719-2.1181-5.719-5.507c0-3.6007 2.118-5.9306 5.507-5.9306s5.719 2.1181 5.719 5.507zm91.289 0.2118c0 3.6007-2.33 5.7188-5.719 5.7188-3.177 0-5.083-1.6944-5.719-4.4479-0.423 2.7535-2.541 4.4479-5.507 4.4479-3.6 0-5.719-2.3299-5.719-5.7188 0-3.6007 2.33-5.7188 5.719-5.7188 3.177 0 5.084 1.6945 5.719 4.448 0.424-2.7535 2.542-4.448 5.507-4.448 3.601 0 5.719 2.3299 5.719 5.7188zm-80.063-0.2118v0.4236c0 3.3889-2.118 5.507-5.507 5.507s-5.719-2.1181-5.719-5.507c0-3.6007 2.118-5.9306 5.507-5.9306s5.719 2.1181 5.719 5.507zm80.063 0.2118c0-3.3889 2.33-5.7188 5.719-5.7188 3.6 0 5.718 2.3299 5.718 5.7188 0 3.6007-2.329 5.7188-5.718 5.7188-3.601 0-5.719-2.3299-5.719-5.7188zm-22.664 11.438c0 3.389-2.329 5.7188-5.718 5.7188-3.601 0-5.719-2.3298-5.719-5.7188 0-3.6007 2.33-5.7188 5.719-5.7188 3.6 0 5.718 2.3299 5.718 5.7188zm22.664-0.2118v0.4236c0 3.389-2.118 5.507-5.507 5.507s-5.719-2.118-5.719-5.507c0-3.6007 2.118-5.9306 5.507-5.9306s5.719 2.1181 5.719 5.507zm-11.226 0.2118c0 3.389-2.33 5.7188-5.719 5.7188-3.6 0-5.719-2.3298-5.719-5.7188 0-3.6007 2.33-5.7188 5.719-5.7188 3.601 0 5.719 2.3299 5.719 5.7188zm-22.875 11.438c0 3.389-2.33 5.7188-5.719 5.7188-3.601 0-5.719-2.3298-5.719-5.7188 0-3.6007 2.33-5.7188 5.719-5.7188 3.601 0 5.719 2.3299 5.719 5.7188zm11.437 0c0-3.6007 2.33-5.7188 5.719-5.7188 3.601 0 5.719 2.3299 5.719 5.7188 0 3.389-2.33 5.7188-5.719 5.7188-3.6 0-5.719-2.3298-5.719-5.7188zm-11.437 0c0-3.6007 2.33-5.7188 5.719-5.7188 3.6 0 5.718 2.3299 5.718 5.7188 0 3.389-2.329 5.7188-5.718 5.7188-3.601 0-5.719-2.3298-5.719-5.7188zm0 11.438c0-3.6008 2.33-5.7189 5.719-5.7189 3.6 0 5.718 2.3299 5.718 5.7189 0 3.3889-2.329 5.7188-5.718 5.7188-3.601 0-5.719-2.3299-5.719-5.7188zm-11.438 0c0 3.3889-2.33 5.7188-5.719 5.7188-3.6 0-5.718-2.3299-5.718-5.7188 0-3.6008 2.33-5.7189 5.718-5.7189 3.601 0 5.719 2.3299 5.719 5.7189zm0 0c0-3.6008 2.33-5.7189 5.719-5.7189 3.601 0 5.719 2.3299 5.719 5.7189 0 3.3889-2.33 5.7188-5.719 5.7188-3.601 0-5.719-2.3299-5.719-5.7188zm0 11.438c0-3.6008 2.33-5.7188 5.719-5.7188 3.601 0 5.719 2.3298 5.719 5.7188 0 3.3888-2.33 5.7188-5.719 5.7188-3.601 0-5.719-2.33-5.719-5.7188zm-11.437-0.2118v0.2118c0 3.3888-2.118 5.5068-5.507 5.5068-3.601 0-5.931-2.118-5.931-5.5068 0-3.389 2.118-5.7188 5.507-5.7188 3.601 0 5.931 2.118 5.931 5.507zm0 0.2118c0-3.6008 2.33-5.7188 5.718-5.7188 3.601 0 5.719 2.3298 5.719 5.7188 0 3.3888-2.33 5.7188-5.719 5.7188-3.6 0-5.718-2.33-5.718-5.7188zm-11.438 11.226c0 3.389-2.33 5.719-5.719 5.719-3.601 0-5.719-2.33-5.719-5.719 0-3.601 2.33-5.719 5.719-5.719 3.601 0 5.719 2.33 5.719 5.719zm11.438 0c0 3.389-2.33 5.719-5.719 5.719-3.601 0-5.719-2.33-5.719-5.719 0-3.601 2.33-5.719 5.719-5.719 3.601 0 5.719 2.33 5.719 5.719zm11.437 0v0.212c0 3.389-2.118 5.507-5.507 5.507-3.6 0-5.93-2.118-5.93-5.507s2.118-5.719 5.507-5.719c3.6 0 5.93 2.118 5.93 5.507zm-22.875 11.438c0-3.601 2.33-5.719 5.719-5.719 3.601 0 5.719 2.33 5.719 5.719 0 3.388-2.33 5.718-5.719 5.718-3.601 0-5.719-2.33-5.719-5.718zm-11.438 0c0-3.601 2.33-5.719 5.719-5.719 3.601 0 5.719 2.33 5.719 5.719 0 3.388-2.33 5.718-5.719 5.718-3.601 0-5.719-2.33-5.719-5.718zm-11.437 0c0-3.601 2.33-5.719 5.719-5.719 3.6 0 5.718 2.33 5.718 5.719 0 3.388-2.329 5.718-5.718 5.718-3.601 0-5.719-2.33-5.719-5.718zm11.437 11.437c0 3.389-2.329 5.719-5.718 5.719-3.601 0-5.719-2.33-5.719-5.719 0-3.601 2.33-5.719 5.719-5.719 3.6 0 5.718 2.33 5.718 5.719zm-22.663 0.212v-0.424c0-3.389 2.118-5.507 5.507-5.507s5.719 2.118 5.719 5.507c0 3.601-2.118 5.931-5.507 5.931s-5.719-2.118-5.719-5.507zm34.101-0.212c0-3.389 2.33-5.719 5.719-5.719 3.601 0 5.719 2.33 5.719 5.719 0 3.601-2.33 5.719-5.719 5.719-3.601 0-5.719-2.33-5.719-5.719zm11.438 0c0-3.389 2.33-5.719 5.718-5.719 3.601 0 5.719 2.33 5.719 5.719 0 3.601-2.33 5.719-5.719 5.719-3.6 0-5.718-2.33-5.718-5.719zm11.437 0c0-3.389 2.33-5.719 5.719-5.719 3.601 0 5.719 2.33 5.719 5.719 0 3.601-2.33 5.719-5.719 5.719-3.601 0-5.719-2.33-5.719-5.719zm11.438 0c0-3.389 2.33-5.719 5.719-5.719 3.6 0 5.718 2.33 5.718 5.719 0 3.601-2.329 5.719-5.718 5.719-3.601 0-5.719-2.33-5.719-5.719zm11.437 0.212v-0.424c0-3.389 2.119-5.507 5.507-5.507 3.389 0 5.719 2.118 5.719 5.507 0 3.601-2.118 5.931-5.507 5.931s-5.719-2.118-5.719-5.507zm11.226-0.212c0-3.389 2.33-5.719 5.719-5.719 3.601 0 5.719 2.33 5.719 5.719 0 3.601-2.33 5.719-5.719 5.719-3.601 0-5.719-2.33-5.719-5.719zm11.438 0c0-3.389 2.33-5.719 5.719-5.719 3.6 0 5.718 2.33 5.718 5.719 0 3.601-2.329 5.719-5.718 5.719-3.601 0-5.719-2.33-5.719-5.719zm-68.414 0c0 3.389-2.33 5.719-5.719 5.719-3.601 0-5.719-2.33-5.719-5.719 0-3.601 2.33-5.719 5.719-5.719 3.601 0 5.719 2.33 5.719 5.719zm22.875 11.438c0-3.389 2.33-5.719 5.719-5.719 3.601 0 5.719 2.33 5.719 5.719 0 3.601-2.33 5.719-5.719 5.719-3.601 0-5.719-2.33-5.719-5.719zm-22.875 0c0-3.389 2.33-5.719 5.719-5.719 3.601 0 5.719 2.33 5.719 5.719 0 3.601-2.33 5.719-5.719 5.719-3.601 0-5.719-2.33-5.719-5.719zm68.414 0c0-3.389 2.33-5.719 5.719-5.719 3.6 0 5.718 2.33 5.718 5.719 0 3.601-2.329 5.719-5.718 5.719-3.601 0-5.719-2.33-5.719-5.719zm-56.976 0c0-3.389 2.33-5.719 5.718-5.719 3.601 0 5.719 2.33 5.719 5.719 0 3.601-2.33 5.719-5.719 5.719-3.6 0-5.718-2.33-5.718-5.719zm-34.313 0c0-3.389 2.33-5.719 5.719-5.719 3.6 0 5.718 2.33 5.718 5.719 0 3.601-2.329 5.719-5.718 5.719-3.601 0-5.719-2.33-5.719-5.719zm57.188 0c0-3.389 2.33-5.719 5.719-5.719 3.6 0 5.718 2.33 5.718 5.719 0 3.601-2.329 5.719-5.718 5.719-3.601 0-5.719-2.33-5.719-5.719zm11.437 0.212v-0.424c0-3.389 2.119-5.507 5.507-5.507 3.389 0 5.719 2.118 5.719 5.507 0 3.601-2.118 5.931-5.507 5.931s-5.719-2.118-5.719-5.507zm11.226-0.212c0-3.389 2.33-5.719 5.719-5.719 3.601 0 5.719 2.33 5.719 5.719 0 3.601-2.33 5.719-5.719 5.719-3.601 0-5.719-2.33-5.719-5.719zm-91.077 0.212v-0.424c0-3.389 2.118-5.507 5.507-5.507s5.719 2.118 5.719 5.507c0 3.601-2.118 5.931-5.507 5.931s-5.719-2.118-5.719-5.507zm22.663-0.212c0-3.389 2.33-5.719 5.719-5.719 3.601 0 5.719 2.33 5.719 5.719 0 3.601-2.33 5.719-5.719 5.719-3.601 0-5.719-2.33-5.719-5.719zm193.97-136.83c0-3.3889 2.118-5.7188 5.719-5.7188 3.389 0 5.719 2.1181 5.719 5.7188 0 3.3889-2.118 5.7188-5.719 5.7188-3.389 0-5.719-2.3299-5.719-5.7188zm-56.976 0c0-3.3889 2.118-5.7188 5.719-5.7188 3.389 0 5.719 2.1181 5.719 5.7188 0 3.3889-2.119 5.7188-5.719 5.7188-3.389 0-5.719-2.3299-5.719-5.7188zm11.438 0.2118v-0.42361c0-3.3889 2.329-5.507 5.718-5.507s5.507 2.3299 5.507 5.9306c0 3.3889-2.33 5.507-5.718 5.507-3.389 0-5.507-2.1181-5.507-5.507zm11.225-0.2118c0-3.3889 2.118-5.7188 5.719-5.7188 3.389 0 5.719 2.1181 5.719 5.7188 0 3.3889-2.118 5.7188-5.719 5.7188-3.389 0-5.719-2.3299-5.719-5.7188zm-28.382 5.7188c-3.389 0-5.719-2.1181-5.719-5.7188 0-3.3889 2.118-5.7188 5.719-5.7188 3.389 0 5.719 2.1181 5.719 5.7188 0 3.3889-2.33 5.7188-5.719 5.7188zm39.82-5.7188c0-3.3889 2.118-5.7188 5.719-5.7188 3.389 0 5.719 2.1181 5.719 5.7188 0 3.3889-2.119 5.7188-5.719 5.7188-3.389 0-5.719-2.3299-5.719-5.7188zm11.438 0c0-3.3889 2.118-5.7188 5.718-5.7188 3.389 0 5.719 2.1181 5.719 5.7188 0 3.3889-2.118 5.7188-5.719 5.7188-3.389 0-5.718-2.3299-5.718-5.7188zm0 11.438c0-3.3889 2.118-5.7188 5.718-5.7188 3.389 0 5.719 2.1181 5.719 5.7188 0 3.3889-2.118 5.7188-5.719 5.7188-3.389 0-5.718-2.3299-5.718-5.7188zm-11.438 0c0-3.3889 2.118-5.7188 5.719-5.7188 3.389 0 5.719 2.1181 5.719 5.7188 0 3.3889-2.119 5.7188-5.719 5.7188-3.389 0-5.719-2.3299-5.719-5.7188zm-11.438 0c0-3.3889 2.118-5.7188 5.719-5.7188 3.389 0 5.719 2.1181 5.719 5.7188 0 3.3889-2.118 5.7188-5.719 5.7188-3.389 0-5.719-2.3299-5.719-5.7188zm-11.225 0.2118v-0.4236c0-3.3889 2.329-5.507 5.718-5.507s5.507 2.3299 5.507 5.9306c0 3.3889-2.33 5.507-5.718 5.507-3.389 0-5.507-2.1181-5.507-5.507zm-11.438-0.2118c0-3.3889 2.118-5.7188 5.719-5.7188 3.389 0 5.719 2.1181 5.719 5.7188 0 3.3889-2.119 5.7188-5.719 5.7188-3.389 0-5.719-2.3299-5.719-5.7188zm0 0c0 3.3889-2.118 5.7188-5.719 5.7188-3.389 0-5.719-2.1181-5.719-5.7188 0-3.3889 2.118-5.7188 5.719-5.7188 3.389 0 5.719 2.3299 5.719 5.7188zm68.414 0c0-3.3889 2.118-5.7188 5.719-5.7188 3.388 0 5.718 2.3299 5.718 5.7188s-2.118 5.7188-5.718 5.7188c-3.389 0-5.719-2.1181-5.719-5.7188zm-85.571-5.7188c3.389 0 5.719 2.1181 5.719 5.7188 0 3.3889-2.118 5.7188-5.719 5.7188-3.388 0-5.718-2.1181-5.718-5.7188 0-3.3889 2.33-5.7188 5.718-5.7188zm74.133 5.7188c0-3.3889 2.118-5.7188 5.719-5.7188 3.389 0 5.719 2.3299 5.719 5.7188s-2.118 5.7188-5.719 5.7188c-3.389 0-5.719-2.1181-5.719-5.7188zm22.875 11.438c0-3.3889 2.118-5.7188 5.719-5.7188 3.389 0 5.719 2.1181 5.719 5.7188 0 3.3889-2.118 5.7188-5.719 5.7188-3.389 0-5.719-2.3299-5.719-5.7188zm-102.73 0c0-3.3889 2.118-5.7188 5.718-5.7188 3.389 0 5.719 2.1181 5.719 5.7188 0 3.3889-2.118 5.7188-5.719 5.7188-3.388 0-5.718-2.3299-5.718-5.7188zm22.875 0c0 3.3889-2.118 5.7188-5.719 5.7188-3.389 0-5.719-2.1181-5.719-5.7188 0-3.3889 2.118-5.7188 5.719-5.7188 3.389 0 5.719 2.3299 5.719 5.7188zm68.414 0c0 3.3889-2.118 5.7188-5.719 5.7188-3.389 0-5.719-2.1181-5.719-5.7188 0-3.3889 2.118-5.7188 5.719-5.7188 3.389 0 5.719 2.3299 5.719 5.7188zm-97.008 5.7188c-3.389 0-5.719-2.1181-5.719-5.7188 0-3.3889 2.118-5.7188 5.719-5.7188 3.389 0 5.719 2.1181 5.719 5.7188 0 3.3889-2.33 5.7188-5.719 5.7188zm97.008-5.7188c0-3.3889 2.118-5.7188 5.719-5.7188 3.388 0 5.718 2.1181 5.718 5.7188 0 3.3889-2.118 5.7188-5.718 5.7188-3.389 0-5.719-2.3299-5.719-5.7188zm0 11.438v-0.2118c0-3.3889 2.33-5.507 5.93-5.507 3.389 0 5.507 2.3299 5.507 5.7188s-2.33 5.507-5.93 5.507c-3.389 0-5.507-2.1181-5.507-5.507zm-91.289 0c0 3.3889-2.118 5.507-5.507 5.507h-0.424c-3.389 0-5.507-2.3299-5.507-5.7188s2.33-5.507 5.931-5.507c3.389 0 5.507 2.3299 5.507 5.7188zm0 0v-0.2118c0-3.3889 2.33-5.507 5.93-5.507 3.389 0 5.507 2.3299 5.507 5.7188s-2.33 5.507-5.93 5.507c-3.389 0-5.507-2.1181-5.507-5.507zm102.73 0v-0.2118c0-3.3889 2.33-5.507 5.931-5.507 3.389 0 5.507 2.3299 5.507 5.7188s-2.33 5.507-5.931 5.507c-3.389 0-5.507-2.1181-5.507-5.507zm-11.437 0c0 3.3889-2.118 5.7188-5.719 5.7188-3.389 0-5.719-2.1181-5.719-5.7188 0-3.3889 2.118-5.7188 5.719-5.7188 3.389 0 5.719 2.3299 5.719 5.7188zm-11.438 11.226c0 3.3889-2.118 5.7188-5.719 5.7188-3.389 0-5.718-2.1181-5.718-5.7188 0-2.9653 1.694-5.0834 4.447-5.7188-2.753-0.4236-4.447-2.3299-4.447-5.507 0-3.3889 2.118-5.7188 5.718-5.7188 3.389 0 5.719 2.3299 5.719 5.7188 0 2.9653-1.694 5.0834-4.448 5.7188 2.754 0.4236 4.448 2.5417 4.448 5.507zm11.438 0c0-3.3889 2.118-5.7188 5.719-5.7188 3.388 0 5.718 2.1181 5.718 5.7188 0 3.3889-2.118 5.7188-5.718 5.7188-3.389 0-5.719-2.3299-5.719-5.7188zm-91.289 0c0 3.3889-2.33 5.7188-5.719 5.7188s-5.719-2.1181-5.719-5.7188c0-3.3889 2.118-5.7188 5.719-5.7188 3.389 0 5.719 2.1181 5.719 5.7188zm102.73 0c0-3.3889 2.118-5.7188 5.719-5.7188 3.389 0 5.719 2.1181 5.719 5.7188 0 3.3889-2.118 5.7188-5.719 5.7188-3.389 0-5.719-2.3299-5.719-5.7188zm-102.73 0c0-3.3889 2.118-5.7188 5.718-5.7188 3.389 0 5.719 2.1181 5.719 5.7188 0 3.3889-2.118 5.7188-5.719 5.7188-3.388 0-5.718-2.3299-5.718-5.7188zm68.414 11.438c0 3.389-2.119 5.7188-5.719 5.7188-3.389 0-5.719-2.118-5.719-5.7188 0-2.9653 1.694-5.0834 4.448-5.7188-2.754-0.4236-4.448-2.3299-4.448-5.507 0-3.3889 2.118-5.7188 5.719-5.7188 3.389 0 5.719 2.3299 5.719 5.7188 0 2.9653-1.695 5.0834-4.448 5.7188 2.753 0.4236 4.448 2.5417 4.448 5.507zm22.875-11.438v0.2118c0 3.3889-2.33 5.507-5.931 5.507-3.389 0-5.507-2.3299-5.507-5.7188s2.33-5.507 5.931-5.507c3.389 0 5.507 2.1181 5.507 5.507zm11.437 11.438c0-3.3889 2.118-5.7188 5.719-5.7188 3.389 0 5.719 2.1181 5.719 5.7188 0 3.389-2.118 5.7188-5.719 5.7188-3.389 0-5.719-2.3298-5.719-5.7188zm-102.73 0c0-3.3889 2.118-5.7188 5.718-5.7188 3.389 0 5.719 2.1181 5.719 5.7188 0 3.389-2.118 5.7188-5.719 5.7188-3.388 0-5.718-2.3298-5.718-5.7188zm79.851 0c0 3.389-2.118 5.7188-5.719 5.7188-3.389 0-5.718-2.118-5.718-5.7188 0-3.3889 2.118-5.7188 5.718-5.7188 3.389 0 5.719 2.3299 5.719 5.7188zm-85.57-5.7188c3.389 0 5.719 2.1181 5.719 5.7188 0 3.389-2.33 5.7188-5.719 5.7188s-5.719-2.118-5.719-5.7188c0-3.3889 2.118-5.7188 5.719-5.7188zm97.008 5.7188c0-3.3889 2.118-5.7188 5.719-5.7188 3.388 0 5.718 2.1181 5.718 5.7188 0 3.389-2.118 5.7188-5.718 5.7188-3.389 0-5.719-2.3298-5.719-5.7188zm-34.313 11.438c0 3.389-2.118 5.7188-5.719 5.7188-3.389 0-5.719-2.118-5.719-5.7188 0-2.9653 1.695-5.0833 4.448-5.7188-2.753-0.4236-4.448-2.3298-4.448-5.507 0-3.3889 2.118-5.7188 5.719-5.7188 3.389 0 5.719 2.3299 5.719 5.7188 0 2.9653-1.695 5.0834-4.448 5.7188 2.753 0.4237 4.448 2.5417 4.448 5.507zm-56.976 0c0-3.3889 2.118-5.7188 5.718-5.7188 3.389 0 5.719 2.1181 5.719 5.7188 0 3.389-2.118 5.7188-5.719 5.7188-3.388 0-5.718-2.3298-5.718-5.7188zm68.414 0c0 3.389-2.119 5.7188-5.719 5.7188-3.389 0-5.719-2.118-5.719-5.7188 0-3.3889 2.118-5.7188 5.719-5.7188 3.389 0 5.719 2.3299 5.719 5.7188zm22.875 0c0-3.3889 2.118-5.7188 5.719-5.7188 3.388 0 5.718 2.1181 5.718 5.7188 0 3.389-2.118 5.7188-5.718 5.7188-3.389 0-5.719-2.3298-5.719-5.7188zm11.437 0c0-3.3889 2.118-5.7188 5.719-5.7188 3.389 0 5.719 2.1181 5.719 5.7188 0 3.389-2.118 5.7188-5.719 5.7188-3.389 0-5.719-2.3298-5.719-5.7188zm-108.44-5.7188c3.389 0 5.719 2.1181 5.719 5.7188 0 3.389-2.33 5.7188-5.719 5.7188s-5.719-2.118-5.719-5.7188c0-3.3889 2.118-5.7188 5.719-5.7188zm51.257 16.945v0.4237c0 3.3889-2.33 5.507-5.718 5.507-3.389 0-5.507-2.3299-5.507-5.9307 0-2.9653 1.694-4.8715 4.447-5.2952-2.753-0.6354-4.447-2.7534-4.447-5.9306 0-3.3889 2.329-5.507 5.718-5.507s5.507 2.1181 5.507 5.507v0.4237c0 2.9653-1.694 4.8715-4.448 5.2951 2.754 0.4237 4.448 2.5417 4.448 5.507zm-45.538 0.2119c0-3.389 2.118-5.7189 5.718-5.7189 3.389 0 5.719 2.1181 5.719 5.7189 0 3.3889-2.118 5.7188-5.719 5.7188-3.388 0-5.718-2.3299-5.718-5.7188zm56.976 0c0 3.3889-2.118 5.7188-5.719 5.7188-3.389 0-5.719-2.1181-5.719-5.7188 0-3.389 2.118-5.7189 5.719-5.7189 3.389 0 5.719 2.3299 5.719 5.7189zm34.313 0c0-3.389 2.118-5.7189 5.719-5.7189 3.388 0 5.718 2.1181 5.718 5.7189 0 3.3889-2.118 5.7188-5.718 5.7188-3.389 0-5.719-2.3299-5.719-5.7188zm11.437 0c0-3.389 2.118-5.7189 5.719-5.7189 3.389 0 5.719 2.1181 5.719 5.7189 0 3.3889-2.118 5.7188-5.719 5.7188-3.389 0-5.719-2.3299-5.719-5.7188zm-108.44-5.7189c3.389 0 5.719 2.1181 5.719 5.7189 0 3.3889-2.33 5.7188-5.719 5.7188s-5.719-2.1181-5.719-5.7188c0-3.389 2.118-5.7189 5.719-5.7189zm40.032 17.156c0 3.3888-2.119 5.7188-5.719 5.7188-3.389 0-5.719-2.118-5.719-5.7188 0-2.9653 1.694-5.0834 4.448-5.7188-2.754-0.4237-4.448-2.3299-4.448-5.507 0-3.389 2.118-5.7189 5.719-5.7189 3.389 0 5.719 2.3299 5.719 5.7189 0 2.9653-1.695 5.0833-4.448 5.7188 2.753 0.4236 4.448 2.5417 4.448 5.507zm-34.313 0c0 3.3888-2.33 5.7188-5.719 5.7188s-5.719-2.118-5.719-5.7188c0-3.389 2.118-5.7188 5.719-5.7188 3.389 0 5.719 2.118 5.719 5.7188zm91.289 0c0-3.389 2.118-5.7188 5.719-5.7188 3.388 0 5.718 2.118 5.718 5.7188 0 3.3888-2.118 5.7188-5.718 5.7188-3.389 0-5.719-2.33-5.719-5.7188zm-91.289 0c0-3.389 2.118-5.7188 5.718-5.7188 3.389 0 5.719 2.118 5.719 5.7188 0 3.3888-2.118 5.7188-5.719 5.7188-3.388 0-5.718-2.33-5.718-5.7188zm102.73 0c0-3.389 2.118-5.7188 5.719-5.7188 3.389 0 5.719 2.118 5.719 5.7188 0 3.3888-2.118 5.7188-5.719 5.7188-3.389 0-5.719-2.33-5.719-5.7188zm-57.188-0.2118v0.4236c0 3.389-2.33 5.507-5.718 5.507-3.389 0-5.507-2.33-5.507-5.9306 0-3.389 2.329-5.507 5.718-5.507s5.507 2.118 5.507 5.507zm-22.663 0.2118v0.2118c0 3.389-2.33 5.507-5.931 5.507-3.389 0-5.507-2.33-5.507-5.7188 0-3.389 2.33-5.507 5.931-5.507 3.389 0 5.507 2.118 5.507 5.507zm0 11.438c0 3.389-2.118 5.719-5.719 5.719-3.389 0-5.719-2.118-5.719-5.719 0-3.389 2.118-5.719 5.719-5.719 3.389 0 5.719 2.33 5.719 5.719zm-22.875 0c0 3.389-2.118 5.507-5.507 5.507h-0.424c-3.389 0-5.507-2.33-5.507-5.719s2.33-5.507 5.931-5.507c3.389 0 5.507 2.33 5.507 5.719zm0 0v-0.212c0-3.389 2.33-5.507 5.93-5.507 3.389 0 5.507 2.33 5.507 5.719s-2.33 5.507-5.93 5.507c-3.389 0-5.507-2.118-5.507-5.507zm102.73 0v-0.212c0-3.389 2.33-5.507 5.931-5.507 3.389 0 5.507 2.33 5.507 5.719s-2.33 5.507-5.931 5.507c-3.389 0-5.507-2.118-5.507-5.507zm-68.413 0c0 3.389-2.119 5.719-5.719 5.719-3.389 0-5.719-2.118-5.719-5.719 0-3.389 2.118-5.719 5.719-5.719 3.389 0 5.719 2.33 5.719 5.719zm56.976 0v-0.212c0-3.389 2.33-5.507 5.93-5.507 3.389 0 5.507 2.33 5.507 5.719s-2.33 5.507-5.93 5.507c-3.389 0-5.507-2.118-5.507-5.507zm0 11.226c0 3.388-2.118 5.718-5.719 5.718-3.389 0-5.719-2.33-5.719-5.718 0-3.389 2.118-5.719 5.719-5.719 3.389 0 5.719 2.118 5.719 5.719zm-91.289 0c0 3.388-2.33 5.718-5.719 5.718s-5.719-2.118-5.719-5.718c0-3.389 2.118-5.719 5.719-5.719 3.389 0 5.719 2.118 5.719 5.719zm102.73 0c0 3.388-2.118 5.718-5.718 5.718-3.389 0-5.719-2.33-5.719-5.718 0-3.389 2.118-5.719 5.719-5.719 3.388 0 5.718 2.118 5.718 5.719zm-97.008 5.718c-3.388 0-5.718-2.33-5.718-5.718 0-3.389 2.118-5.719 5.718-5.719 3.389 0 5.719 2.118 5.719 5.719 0 3.388-2.118 5.718-5.719 5.718zm97.008-5.718c0-3.389 2.118-5.719 5.719-5.719 3.389 0 5.719 2.118 5.719 5.719 0 3.388-2.118 5.718-5.719 5.718-3.389 0-5.719-2.33-5.719-5.718zm-79.851 0v0.211c0 3.389-2.33 5.507-5.931 5.507-3.389 0-5.507-2.33-5.507-5.718 0-3.389 2.33-5.507 5.931-5.507 3.389 0 5.507 2.118 5.507 5.507zm0 11.437c0-3.389 2.118-5.719 5.719-5.719 3.389 0 5.719 2.33 5.719 5.719s-2.119 5.719-5.719 5.719c-3.389 0-5.719-2.118-5.719-5.719zm68.414 0c0-3.389 2.118-5.719 5.719-5.719 3.388 0 5.718 2.33 5.718 5.719s-2.118 5.719-5.718 5.719c-3.389 0-5.719-2.118-5.719-5.719zm-11.438 0c0-3.389 2.118-5.719 5.719-5.719 3.389 0 5.719 2.33 5.719 5.719s-2.118 5.719-5.719 5.719c-3.389 0-5.719-2.118-5.719-5.719zm-79.851 0c0-3.389 2.33-5.719 5.718-5.719 3.389 0 5.719 2.118 5.719 5.719 0 3.389-2.118 5.719-5.719 5.719-3.388 0-5.718-2.118-5.718-5.719zm11.437 0c0-3.389 2.118-5.719 5.719-5.719 3.389 0 5.719 2.33 5.719 5.719s-2.118 5.719-5.719 5.719c-3.389 0-5.719-2.118-5.719-5.719zm56.977 0c0-3.389 2.118-5.719 5.718-5.719 3.389 0 5.719 2.33 5.719 5.719s-2.118 5.719-5.719 5.719c-3.389 0-5.718-2.118-5.718-5.719zm0-0.212v0.424c0 3.389-2.33 5.507-5.719 5.507s-5.507-2.33-5.507-5.931c0-3.389 2.33-5.507 5.719-5.507 3.388 0 5.507 2.118 5.507 5.507zm-11.226 0.212c0 3.389-2.118 5.719-5.719 5.719-3.389 0-5.719-2.118-5.719-5.719 0-3.389 2.118-5.719 5.719-5.719 3.389 0 5.719 2.33 5.719 5.719zm-11.438 0c0 3.389-2.118 5.719-5.719 5.719-3.389 0-5.718-2.118-5.718-5.719 0-3.389 2.118-5.719 5.718-5.719 3.389 0 5.719 2.33 5.719 5.719zm-22.875 11.438c0-3.389 2.118-5.719 5.719-5.719 3.389 0 5.719 2.118 5.719 5.719 0 3.389-2.119 5.719-5.719 5.719-3.389 0-5.719-2.33-5.719-5.719zm11.438 0.212v-0.424c0-3.389 2.329-5.507 5.718-5.507s5.507 2.33 5.507 5.931c0 3.389-2.33 5.507-5.718 5.507-3.389 0-5.507-2.118-5.507-5.507zm11.225-0.212c0-3.389 2.118-5.719 5.719-5.719 3.389 0 5.719 2.118 5.719 5.719 0 3.389-2.118 5.719-5.719 5.719-3.389 0-5.719-2.33-5.719-5.719zm11.438 0c0-3.389 2.118-5.719 5.719-5.719 3.389 0 5.719 2.118 5.719 5.719 0 3.389-2.119 5.719-5.719 5.719-3.389 0-5.719-2.33-5.719-5.719zm22.875 0c0-3.389 2.118-5.719 5.719-5.719 3.389 0 5.719 2.118 5.719 5.719 0 3.389-2.118 5.719-5.719 5.719-3.389 0-5.719-2.33-5.719-5.719zm-62.695 5.719c-3.389 0-5.719-2.118-5.719-5.719 0-3.389 2.118-5.719 5.719-5.719 3.389 0 5.719 2.118 5.719 5.719 0 3.389-2.33 5.719-5.719 5.719zm51.258-5.719c0-3.389 2.118-5.719 5.718-5.719 3.389 0 5.719 2.118 5.719 5.719 0 3.389-2.118 5.719-5.719 5.719-3.389 0-5.718-2.33-5.718-5.719zm190.74-85.811c0 2.592-1.782 4.374-4.374 4.374-2.754 0-4.374-1.782-4.374-4.374 0-2.754 1.782-4.374 4.374-4.374 2.754 0 4.374 1.782 4.374 4.374zm8.748 0c0 2.592-1.782 4.374-4.374 4.374-2.754 0-4.374-1.782-4.374-4.374 0-2.754 1.782-4.374 4.374-4.374 2.754 0 4.374 1.782 4.374 4.374zm0 8.586v0.162c0 2.592-1.62 4.212-4.212 4.212-2.754 0-4.536-1.62-4.536-4.212s1.62-4.374 4.212-4.374c2.754 0 4.536 1.62 4.536 4.212zm-8.748 0v0.162c0 2.592-1.62 4.212-4.212 4.212-2.754 0-4.536-1.62-4.536-4.212s1.62-4.374 4.212-4.374c2.754 0 4.536 1.62 4.536 4.212zm0 8.748c0 2.592-1.782 4.374-4.374 4.374-2.754 0-4.374-1.782-4.374-4.374 0-2.754 1.782-4.374 4.374-4.374 2.754 0 4.374 1.782 4.374 4.374zm8.748 0c0 2.592-1.782 4.374-4.374 4.374-2.754 0-4.374-1.782-4.374-4.374 0-2.754 1.782-4.374 4.374-4.374 2.754 0 4.374 1.782 4.374 4.374zm-8.748 8.748c0 2.592-1.782 4.374-4.374 4.374-2.754 0-4.374-1.782-4.374-4.374 0-2.754 1.782-4.374 4.374-4.374 2.754 0 4.374 1.782 4.374 4.374zm8.748 0c0 2.592-1.782 4.374-4.374 4.374-2.754 0-4.374-1.782-4.374-4.374 0-2.754 1.782-4.374 4.374-4.374 2.754 0 4.374 1.782 4.374 4.374zm26.082 8.748c0-2.592 1.782-4.374 4.374-4.374 2.754 0 4.374 1.782 4.374 4.374 0 2.754-1.782 4.374-4.374 4.374-2.754 0-4.374-1.782-4.374-4.374zm-8.748 0c0-2.592 1.782-4.374 4.374-4.374 2.754 0 4.374 1.782 4.374 4.374 0 2.754-1.782 4.374-4.374 4.374-2.754 0-4.374-1.782-4.374-4.374zm0-0.162v0.324c0 2.592-1.62 4.212-4.212 4.212s-4.374-1.62-4.374-4.212c0-2.754 1.62-4.536 4.212-4.536s4.374 1.62 4.374 4.212zm-26.082 0.162c0 2.592-1.782 4.374-4.374 4.374-2.754 0-4.374-1.782-4.374-4.374 0-2.754 1.782-4.374 4.374-4.374 2.754 0 4.374 1.782 4.374 4.374zm8.748 0c0-2.754 1.782-4.374 4.374-4.374 2.754 0 4.374 1.782 4.374 4.374s-1.782 4.374-4.374 4.374c-2.754 0-4.374-1.782-4.374-4.374zm-26.244 0c0-2.754 1.782-4.374 4.374-4.374 2.754 0 4.374 1.782 4.374 4.374s-1.782 4.374-4.374 4.374c-2.754 0-4.374-1.782-4.374-4.374zm-8.748 0c0-2.754 1.782-4.374 4.374-4.374 2.754 0 4.374 1.782 4.374 4.374s-1.782 4.374-4.374 4.374c-2.754 0-4.374-1.782-4.374-4.374zm-8.748 0c0-2.754 1.782-4.374 4.374-4.374 2.754 0 4.374 1.782 4.374 4.374s-1.782 4.374-4.374 4.374c-2.754 0-4.374-1.782-4.374-4.374zm34.992 0c0-2.754 1.782-4.374 4.374-4.374 2.754 0 4.374 1.782 4.374 4.374s-1.782 4.374-4.374 4.374c-2.754 0-4.374-1.782-4.374-4.374zm-34.992-0.162v0.324c0 2.592-1.62 4.212-4.212 4.212s-4.374-1.62-4.374-4.212c0-2.754 1.62-4.536 4.212-4.536s4.374 1.62 4.374 4.212zm0 8.7484v0.324c0 2.592-1.62 4.212-4.212 4.212s-4.374-1.62-4.374-4.212c0-2.7544 1.62-4.5364 4.212-4.5364s4.374 1.62 4.374 4.2124zm61.074 0.162c0-2.5924 1.782-4.3744 4.374-4.3744 2.754 0 4.374 1.782 4.374 4.3744 0 2.754-1.782 4.374-4.374 4.374-2.754 0-4.374-1.782-4.374-4.374zm0-0.162v0.324c0 2.592-1.62 4.212-4.212 4.212s-4.374-1.62-4.374-4.212c0-2.7544 1.62-4.5364 4.212-4.5364s4.374 1.62 4.374 4.2124zm-26.082 0.162c0-2.7544 1.782-4.3744 4.374-4.3744 2.754 0 4.374 1.782 4.374 4.3744 0 2.592-1.782 4.374-4.374 4.374-2.754 0-4.374-1.782-4.374-4.374zm34.83 0c0-2.5924 1.782-4.3744 4.374-4.3744 2.754 0 4.374 1.782 4.374 4.3744 0 2.754-1.782 4.374-4.374 4.374-2.754 0-4.374-1.782-4.374-4.374zm-17.334 0c0 2.592-1.782 4.374-4.374 4.374-2.754 0-4.374-1.782-4.374-4.374 0-2.7544 1.782-4.3744 4.374-4.3744 2.754 0 4.374 1.782 4.374 4.3744zm-26.244 0c0-2.7544 1.782-4.3744 4.374-4.3744 2.754 0 4.374 1.782 4.374 4.3744 0 2.592-1.782 4.374-4.374 4.374-2.754 0-4.374-1.782-4.374-4.374zm-8.748 0c0-2.7544 1.782-4.3744 4.374-4.3744 2.754 0 4.374 1.782 4.374 4.3744 0 2.592-1.782 4.374-4.374 4.374-2.754 0-4.374-1.782-4.374-4.374zm-8.748 0c0-2.7544 1.782-4.3744 4.374-4.3744 2.754 0 4.374 1.782 4.374 4.3744 0 2.592-1.782 4.374-4.374 4.374-2.754 0-4.374-1.782-4.374-4.374zm-8.748 0c0-2.7544 1.782-4.3744 4.374-4.3744 2.754 0 4.374 1.782 4.374 4.3744 0 2.592-1.782 4.374-4.374 4.374-2.754 0-4.374-1.782-4.374-4.374zm34.992 8.748c0-2.754 1.782-4.374 4.374-4.374 2.754 0 4.374 1.782 4.374 4.374s-1.782 4.374-4.374 4.374c-2.754 0-4.374-1.782-4.374-4.374zm-8.748 0c0-2.754 1.782-4.374 4.374-4.374 2.754 0 4.374 1.782 4.374 4.374s-1.782 4.374-4.374 4.374c-2.754 0-4.374-1.782-4.374-4.374zm17.496 8.586v0.162c0 2.592-1.62 4.212-4.212 4.212-2.754 0-4.536-1.62-4.536-4.212s1.62-4.374 4.212-4.374c2.754 0 4.536 1.62 4.536 4.212zm-8.748 0v0.162c0 2.592-1.62 4.212-4.212 4.212-2.754 0-4.536-1.62-4.536-4.212s1.62-4.374 4.212-4.374c2.754 0 4.536 1.62 4.536 4.212zm0 8.748c0-2.754 1.782-4.374 4.374-4.374 2.754 0 4.374 1.782 4.374 4.374s-1.782 4.374-4.374 4.374c-2.754 0-4.374-1.782-4.374-4.374zm-8.748 0c0-2.754 1.782-4.374 4.374-4.374 2.754 0 4.374 1.782 4.374 4.374s-1.782 4.374-4.374 4.374c-2.754 0-4.374-1.782-4.374-4.374zm8.748 8.748c0 2.592-1.782 4.374-4.374 4.374-2.754 0-4.374-1.782-4.374-4.374 0-2.754 1.782-4.374 4.374-4.374 2.754 0 4.374 1.782 4.374 4.374zm8.748 0c0 2.592-1.782 4.374-4.374 4.374-2.754 0-4.374-1.782-4.374-4.374 0-2.754 1.782-4.374 4.374-4.374 2.754 0 4.374 1.782 4.374 4.374z" fill="#5A5A5A"/>
<path d="m388.76 6.1971c0-3.3889 2.118-5.7188 5.719-5.7188 3.389 0 5.719 2.1181 5.719 5.7188 0 3.3889-2.118 5.7188-5.719 5.7188-3.389 0-5.719-2.3299-5.719-5.7188zm11.438 0c0-3.3889 2.118-5.7188 5.719-5.7188 3.389 0 5.718 2.1181 5.718 5.7188 0 3.3889-2.118 5.7188-5.718 5.7188-3.389 0-5.719-2.3299-5.719-5.7188zm0 11.438c0-3.3889 2.118-5.7188 5.719-5.7188 3.389 0 5.718 2.3299 5.718 5.7188s-2.118 5.7188-5.718 5.7188c-3.389 0-5.719-2.1181-5.719-5.7188zm-11.438 0c0-3.3889 2.118-5.7188 5.719-5.7188 3.389 0 5.719 2.3299 5.719 5.7188s-2.118 5.7188-5.719 5.7188c-3.389 0-5.719-2.1181-5.719-5.7188zm11.438 11.438c0 3.3889-2.118 5.7188-5.719 5.7188-3.389 0-5.719-2.1181-5.719-5.7188 0-3.3889 2.118-5.7188 5.719-5.7188 3.389 0 5.719 2.3299 5.719 5.7188zm11.437 0c0 3.3889-2.118 5.7188-5.718 5.7188-3.389 0-5.719-2.1181-5.719-5.7188 0-3.3889 2.118-5.7188 5.719-5.7188 3.389 0 5.718 2.3299 5.718 5.7188zm-11.437 11.226c0-3.3889 2.33-5.507 5.93-5.507 3.389 0 5.507 2.1181 5.507 5.507v0.2118c0 3.3889-2.329 5.507-5.93 5.507-3.389 0-5.507-2.3299-5.507-5.7188zm-5.931 5.7188c-3.389 0-5.507-2.3299-5.507-5.7188s2.33-5.507 5.931-5.507c3.389 0 5.507 2.1181 5.507 5.507v0.2118c0 3.3889-2.33 5.507-5.931 5.507zm63.119 5.9306c0 3.3889-2.33 5.507-5.719 5.507s-5.507-2.1181-5.507-5.507v-0.4236c0-3.3889 2.33-5.507 5.719-5.507s5.507 2.3299 5.507 5.9306zm-57.188-0.2118c0-3.3889 2.118-5.7188 5.719-5.7188 3.389 0 5.718 2.3299 5.718 5.7188s-2.118 5.7188-5.718 5.7188c-3.389 0-5.719-2.1181-5.719-5.7188zm-11.438 0c0-3.3889 2.118-5.7188 5.719-5.7188 3.389 0 5.719 2.3299 5.719 5.7188s-2.118 5.7188-5.719 5.7188c-3.389 0-5.719-2.1181-5.719-5.7188zm68.626 0.2118v-0.4236c0-3.3889 2.33-5.507 5.719-5.507s5.507 2.3299 5.507 5.9306c0 3.3889-2.33 5.507-5.719 5.507s-5.507-2.1181-5.507-5.507zm-57.188 11.226c0 3.389-2.118 5.7188-5.719 5.7188-3.389 0-5.719-2.118-5.719-5.7188 0-3.3889 2.118-5.7188 5.719-5.7188 3.389 0 5.719 2.3299 5.719 5.7188zm57.188 0.2118v-0.4236c0-3.3889 2.33-5.507 5.719-5.507s5.507 2.3299 5.507 5.9306c0 3.389-2.33 5.507-5.719 5.507s-5.507-2.118-5.507-5.507zm-11.438-0.2118c0 3.389-2.118 5.7188-5.719 5.7188-3.388 0-5.718-2.118-5.718-5.7188 0-3.3889 2.118-5.7188 5.718-5.7188 3.389 0 5.719 2.3299 5.719 5.7188zm11.438 0c0 3.389-2.118 5.7188-5.719 5.7188-3.389 0-5.719-2.118-5.719-5.7188 0-3.3889 2.118-5.7188 5.719-5.7188 3.389 0 5.719 2.3299 5.719 5.7188zm-45.751 0c0 3.389-2.118 5.7188-5.718 5.7188-3.389 0-5.719-2.118-5.719-5.7188 0-3.3889 2.118-5.7188 5.719-5.7188 3.389 0 5.718 2.3299 5.718 5.7188zm34.313 11.438c0-3.3889 2.118-5.7188 5.719-5.7188 3.389 0 5.719 2.3299 5.719 5.7188 0 3.389-2.118 5.7188-5.719 5.7188-3.389 0-5.719-2.118-5.719-5.7188zm-45.75 0c0 3.389-2.118 5.7188-5.719 5.7188-3.389 0-5.719-2.118-5.719-5.7188 0-3.3889 2.118-5.7188 5.719-5.7188 3.389 0 5.719 2.3299 5.719 5.7188zm34.313 0c0-3.3889 2.118-5.7188 5.718-5.7188 3.389 0 5.719 2.3299 5.719 5.7188 0 3.389-2.118 5.7188-5.719 5.7188-3.388 0-5.718-2.118-5.718-5.7188zm-11.438 0c0-3.3889 2.118-5.7188 5.719-5.7188 3.389 0 5.719 2.3299 5.719 5.7188 0 3.389-2.118 5.7188-5.719 5.7188-3.389 0-5.719-2.118-5.719-5.7188zm-11.438 0c0 3.389-2.118 5.7188-5.718 5.7188-3.389 0-5.719-2.118-5.719-5.7188 0-3.3889 2.118-5.7188 5.719-5.7188 3.389 0 5.718 2.3299 5.718 5.7188zm-11.437 11.438c0-3.389 2.118-5.7189 5.719-5.7189 3.389 0 5.718 2.3299 5.718 5.7189 0 3.3889-2.118 5.7188-5.718 5.7188-3.389 0-5.719-2.1181-5.719-5.7188zm-11.438 0c0-3.389 2.118-5.7189 5.719-5.7189 3.389 0 5.719 2.3299 5.719 5.7189 0 3.3889-2.118 5.7188-5.719 5.7188-3.389 0-5.719-2.1181-5.719-5.7188zm34.313 0c0-3.389 2.118-5.7189 5.719-5.7189 3.389 0 5.719 2.3299 5.719 5.7189 0 3.3889-2.118 5.7188-5.719 5.7188-3.389 0-5.719-2.1181-5.719-5.7188zm11.438 0c0-3.389 2.118-5.7189 5.718-5.7189 3.389 0 5.719 2.3299 5.719 5.7189 0 3.3889-2.118 5.7188-5.719 5.7188-3.388 0-5.718-2.1181-5.718-5.7188zm-22.876 0c0-3.389 2.119-5.7189 5.719-5.7189 3.389 0 5.719 2.3299 5.719 5.7189 0 3.3889-2.118 5.7188-5.719 5.7188-3.389 0-5.719-2.1181-5.719-5.7188zm-11.437 11.438c0 3.3888-2.118 5.7188-5.719 5.7188-3.389 0-5.719-2.118-5.719-5.7188 0-3.389 2.118-5.7188 5.719-5.7188 3.389 0 5.719 2.3298 5.719 5.7188zm11.437 0c0 3.3888-2.118 5.7188-5.718 5.7188-3.389 0-5.719-2.118-5.719-5.7188 0-3.389 2.118-5.7188 5.719-5.7188 3.389 0 5.718 2.3298 5.718 5.7188zm34.313 0c0 3.3888-2.118 5.7188-5.719 5.7188-3.388 0-5.718-2.118-5.718-5.7188 0-3.389 2.118-5.7188 5.718-5.7188 3.389 0 5.719 2.3298 5.719 5.7188zm-22.875 0c0 3.3888-2.118 5.7188-5.719 5.7188-3.389 0-5.719-2.118-5.719-5.7188 0-3.389 2.119-5.7188 5.719-5.7188 3.389 0 5.719 2.3298 5.719 5.7188zm11.438 0c0 3.3888-2.118 5.7188-5.719 5.7188-3.389 0-5.719-2.118-5.719-5.7188 0-3.389 2.118-5.7188 5.719-5.7188 3.389 0 5.719 2.3298 5.719 5.7188zm-34.313 11.226v0.212c0 3.389-2.33 5.507-5.931 5.507-3.389 0-5.507-2.33-5.507-5.719s2.33-5.507 5.931-5.507c3.389 0 5.507 2.118 5.507 5.507zm57.188 0v0.212c0 3.389-2.33 5.507-5.931 5.507-3.389 0-5.507-2.33-5.507-5.719s2.33-5.507 5.931-5.507c3.389 0 5.507 2.118 5.507 5.507zm-45.751 0v0.212c0 3.389-2.329 5.507-5.93 5.507-3.389 0-5.507-2.33-5.507-5.719s2.33-5.507 5.93-5.507c3.389 0 5.507 2.118 5.507 5.507zm34.313 0v0.212c0 3.389-2.33 5.507-5.93 5.507-3.389 0-5.507-2.33-5.507-5.719s2.33-5.507 5.93-5.507c3.389 0 5.507 2.118 5.507 5.507zm-11.437 0v0.212c0 3.389-2.33 5.507-5.931 5.507-3.389 0-5.507-2.33-5.507-5.719s2.33-5.507 5.931-5.507c3.389 0 5.507 2.118 5.507 5.507zm-34.313 11.438c0 3.388-2.118 5.718-5.719 5.718-3.389 0-5.719-2.118-5.719-5.718 0-3.389 2.118-5.719 5.719-5.719 3.389 0 5.719 2.33 5.719 5.719zm57.188 0c0 3.388-2.118 5.718-5.719 5.718-3.389 0-5.719-2.118-5.719-5.718 0-3.389 2.118-5.719 5.719-5.719 3.389 0 5.719 2.33 5.719 5.719zm-45.751 0c0 3.388-2.118 5.718-5.718 5.718-3.389 0-5.719-2.118-5.719-5.718 0-3.389 2.118-5.719 5.719-5.719 3.389 0 5.718 2.33 5.718 5.719zm34.313 0c0 3.388-2.118 5.718-5.719 5.718-3.388 0-5.718-2.118-5.718-5.718 0-3.389 2.118-5.719 5.718-5.719 3.389 0 5.719 2.33 5.719 5.719zm11.438 11.649v-0.424c0-3.389 2.33-5.507 5.719-5.507s5.507 2.33 5.507 5.931c0 3.389-2.33 5.507-5.719 5.507s-5.507-2.118-5.507-5.507zm-57.188-0.212c0-3.389 2.118-5.719 5.719-5.719 3.389 0 5.718 2.33 5.718 5.719s-2.118 5.719-5.718 5.719c-3.389 0-5.719-2.118-5.719-5.719zm-11.438 0c0-3.389 2.118-5.719 5.719-5.719 3.389 0 5.719 2.33 5.719 5.719s-2.118 5.719-5.719 5.719c-3.389 0-5.719-2.118-5.719-5.719zm57.188 0c0-3.389 2.118-5.719 5.719-5.719 3.389 0 5.719 2.118 5.719 5.719 0 3.389-2.118 5.719-5.719 5.719-3.389 0-5.719-2.33-5.719-5.719zm11.438 11.65v-0.424c0-3.389 2.33-5.507 5.719-5.507s5.507 2.33 5.507 5.931c0 3.389-2.33 5.507-5.719 5.507s-5.507-2.118-5.507-5.507zm-57.188-0.212c0-3.389 2.118-5.719 5.719-5.719 3.389 0 5.718 2.118 5.718 5.719 0 3.389-2.118 5.719-5.718 5.719-3.389 0-5.719-2.33-5.719-5.719zm45.75 0c0-3.389 2.118-5.719 5.719-5.719 3.389 0 5.719 2.118 5.719 5.719 0 3.389-2.118 5.719-5.719 5.719-3.389 0-5.719-2.33-5.719-5.719zm-57.188 0c0-3.389 2.118-5.719 5.719-5.719 3.389 0 5.719 2.118 5.719 5.719 0 3.389-2.118 5.719-5.719 5.719-3.389 0-5.719-2.33-5.719-5.719z" fill="#CC5200"/>
</svg>
