<svg width="69" height="90" viewBox="0 0 69 90" fill="none" xmlns="http://www.w3.org/2000/svg">
<path d="M61.6311 4.01007V3.75643C61.6311 1.72725 62.8993 0.459021 64.9285 0.459021C66.9577 0.459021 68.3527 1.72725 68.3527 3.75643C68.3527 5.91243 67.0845 7.30749 65.0553 7.30749C63.0261 7.30749 61.6311 6.03925 61.6311 4.01007ZM54.7826 10.7317C54.7826 8.57572 56.1777 7.30749 58.2068 7.30749C60.3628 7.30749 61.6311 8.70254 61.6311 10.7317C61.6311 12.7609 60.236 14.1559 58.2068 14.1559C56.0508 14.1559 54.7826 12.7609 54.7826 10.7317ZM47.9342 10.7317C47.9342 8.57572 49.3292 7.30749 51.3584 7.30749C53.5144 7.30749 54.7826 8.70254 54.7826 10.7317C54.7826 12.7609 53.3876 14.1559 51.3584 14.1559C49.2024 14.1559 47.9342 12.7609 47.9342 10.7317ZM47.9342 17.5802C47.9342 15.4242 49.3292 14.1559 51.3584 14.1559C53.5144 14.1559 54.7826 15.551 54.7826 17.5802C54.7826 19.6094 53.3876 21.0044 51.3584 21.0044C49.2024 21.0044 47.9342 19.6094 47.9342 17.5802ZM41.0857 17.5802C41.0857 15.4242 42.4807 14.1559 44.5099 14.1559C46.6659 14.1559 47.9342 15.551 47.9342 17.5802C47.9342 19.6094 46.5391 21.0044 44.5099 21.0044C42.3539 21.0044 41.0857 19.6094 41.0857 17.5802ZM34.2372 17.5802C34.2372 15.4242 35.6323 14.1559 37.6615 14.1559C39.8175 14.1559 41.0857 15.551 41.0857 17.5802C41.0857 19.6094 39.6906 21.0044 37.6615 21.0044C35.5055 21.0044 34.2372 19.6094 34.2372 17.5802ZM47.9342 24.3018V24.4286C47.9342 26.4578 46.6659 27.726 44.6367 27.726C42.4807 27.726 41.0857 26.4578 41.0857 24.4286C41.0857 22.3995 42.3539 21.0044 44.3831 21.0044C46.5391 21.0044 47.9342 22.2726 47.9342 24.3018ZM27.3888 24.3018V24.4286C27.3888 26.331 25.9937 27.726 24.0914 27.726C21.9354 27.726 20.6671 26.4578 20.6671 24.4286C20.6671 22.3995 21.9354 21.0044 23.9645 21.0044C25.9937 21.0044 27.3888 22.2726 27.3888 24.3018ZM41.0857 24.3018V24.4286C41.0857 26.4578 39.8175 27.726 37.7883 27.726C35.6323 27.726 34.2372 26.4578 34.2372 24.4286C34.2372 22.3995 35.5055 21.0044 37.5346 21.0044C39.6906 21.0044 41.0857 22.2726 41.0857 24.3018ZM34.2372 24.3018V24.4286C34.2372 26.4578 32.969 27.726 30.9398 27.726C28.7838 27.726 27.3888 26.4578 27.3888 24.4286C27.3888 22.3995 28.657 21.0044 30.6862 21.0044C32.8422 21.0044 34.2372 22.2726 34.2372 24.3018ZM20.6671 31.1503C20.6671 33.1795 19.2721 34.5745 17.2429 34.5745C15.0869 34.5745 13.8187 33.1795 13.8187 31.1503C13.8187 28.9943 15.2137 27.726 17.2429 27.726C19.3989 27.726 20.6671 29.1211 20.6671 31.1503ZM27.3888 31.0235V31.2771C27.3888 33.3063 26.1205 34.5745 24.0914 34.5745C22.0622 34.5745 20.6671 33.3063 20.6671 31.2771C20.6671 29.1211 21.9354 27.726 23.9645 27.726C25.9937 27.726 27.3888 28.9943 27.3888 31.0235ZM34.2372 31.1503C34.2372 28.9943 35.6323 27.726 37.6615 27.726C39.8175 27.726 41.0857 29.1211 41.0857 31.1503C41.0857 33.1795 39.6906 34.5745 37.6615 34.5745C35.5055 34.5745 34.2372 33.1795 34.2372 31.1503ZM27.3888 31.1503C27.3888 28.9943 28.7838 27.726 30.813 27.726C32.969 27.726 34.2372 29.1211 34.2372 31.1503C34.2372 33.1795 32.8422 34.5745 30.813 34.5745C28.657 34.5745 27.3888 33.1795 27.3888 31.1503ZM34.2372 37.9987C34.2372 40.0279 32.8422 41.423 30.813 41.423C28.657 41.423 27.3888 40.0279 27.3888 37.9987C27.3888 35.8427 28.7838 34.5745 30.813 34.5745C32.969 34.5745 34.2372 35.9696 34.2372 37.9987ZM61.6311 38.1256V37.8719C61.6311 35.8427 62.8993 34.5745 64.9285 34.5745C66.9577 34.5745 68.3527 35.8427 68.3527 37.8719C68.3527 40.0279 67.0845 41.423 65.0553 41.423C63.0261 41.423 61.6311 40.1547 61.6311 38.1256ZM54.7826 37.9987C54.7826 35.8427 56.1777 34.5745 58.2068 34.5745C60.3628 34.5745 61.6311 35.9696 61.6311 37.9987C61.6311 40.0279 60.236 41.423 58.2068 41.423C56.0508 41.423 54.7826 40.0279 54.7826 37.9987ZM13.8187 37.9987C13.8187 40.0279 12.4236 41.423 10.3944 41.423C8.23844 41.423 6.9702 40.0279 6.9702 37.9987C6.9702 35.8427 8.36526 34.5745 10.3944 34.5745C12.5504 34.5745 13.8187 35.9696 13.8187 37.9987ZM47.9342 37.9987C47.9342 35.8427 49.3292 34.5745 51.3584 34.5745C53.5144 34.5745 54.7826 35.9696 54.7826 37.9987C54.7826 40.0279 53.3876 41.423 51.3584 41.423C49.2024 41.423 47.9342 40.0279 47.9342 37.9987ZM41.0857 37.9987C41.0857 35.8427 42.4807 34.5745 44.5099 34.5745C46.6659 34.5745 47.9342 35.9696 47.9342 37.9987C47.9342 40.0279 46.5391 41.423 44.5099 41.423C42.3539 41.423 41.0857 40.0279 41.0857 37.9987ZM27.3888 37.8719V38.1256C27.3888 40.1547 26.1205 41.423 24.0914 41.423C22.0622 41.423 20.6671 40.1547 20.6671 38.1256C20.6671 35.9696 21.9354 34.5745 23.9645 34.5745C25.9937 34.5745 27.3888 35.8427 27.3888 37.8719ZM20.6671 37.9987C20.6671 40.0279 19.2721 41.423 17.2429 41.423C15.0869 41.423 13.8187 40.0279 13.8187 37.9987C13.8187 35.8427 15.2137 34.5745 17.2429 34.5745C19.3989 34.5745 20.6671 35.9696 20.6671 37.9987ZM34.2372 37.9987C34.2372 35.8427 35.6323 34.5745 37.6615 34.5745C39.8175 34.5745 41.0857 35.9696 41.0857 37.9987C41.0857 40.0279 39.6906 41.423 37.6615 41.423C35.5055 41.423 34.2372 40.0279 34.2372 37.9987ZM54.7826 44.8472C54.7826 42.6912 56.1777 41.423 58.2068 41.423C60.3628 41.423 61.6311 42.818 61.6311 44.8472C61.6311 46.8764 60.236 48.2714 58.2068 48.2714C56.0508 48.2714 54.7826 46.8764 54.7826 44.8472ZM47.9342 44.8472C47.9342 42.6912 49.3292 41.423 51.3584 41.423C53.5144 41.423 54.7826 42.818 54.7826 44.8472C54.7826 46.8764 53.3876 48.2714 51.3584 48.2714C49.2024 48.2714 47.9342 46.8764 47.9342 44.8472ZM27.3888 44.7204V44.974C27.3888 47.0032 26.1205 48.2714 24.0914 48.2714C22.0622 48.2714 20.6671 47.0032 20.6671 44.974C20.6671 42.818 21.9354 41.423 23.9645 41.423C25.9937 41.423 27.3888 42.6912 27.3888 44.7204ZM13.8187 44.8472C13.8187 42.6912 15.2137 41.423 17.2429 41.423C19.3989 41.423 20.6671 42.818 20.6671 44.8472C20.6671 46.8764 19.2721 48.2714 17.2429 48.2714C15.0869 48.2714 13.8187 46.8764 13.8187 44.8472ZM0.121741 44.8472C0.121741 42.818 1.5168 41.423 3.54597 41.423C5.70197 41.423 6.9702 42.818 6.9702 44.8472C6.9702 47.0032 5.57515 48.2714 3.54597 48.2714C1.38997 48.2714 0.121741 46.8764 0.121741 44.8472ZM6.9702 44.8472C6.9702 42.6912 8.36526 41.423 10.3944 41.423C12.5504 41.423 13.8187 42.818 13.8187 44.8472C13.8187 46.8764 12.4236 48.2714 10.3944 48.2714C8.23844 48.2714 6.9702 46.8764 6.9702 44.8472ZM41.0857 44.8472C41.0857 42.6912 42.4807 41.423 44.5099 41.423C46.6659 41.423 47.9342 42.818 47.9342 44.8472C47.9342 46.8764 46.5391 48.2714 44.5099 48.2714C42.3539 48.2714 41.0857 46.8764 41.0857 44.8472ZM34.2372 44.8472C34.2372 46.8764 32.8422 48.2714 30.813 48.2714C28.657 48.2714 27.3888 46.8764 27.3888 44.8472C27.3888 42.6912 28.7838 41.423 30.813 41.423C32.969 41.423 34.2372 42.818 34.2372 44.8472ZM34.2372 44.8472C34.2372 42.6912 35.6323 41.423 37.6615 41.423C39.8175 41.423 41.0857 42.818 41.0857 44.8472C41.0857 46.8764 39.6906 48.2714 37.6615 48.2714C35.5055 48.2714 34.2372 46.8764 34.2372 44.8472ZM34.2372 51.6957C34.2372 49.5397 35.6323 48.2714 37.6615 48.2714C39.8175 48.2714 41.0857 49.6665 41.0857 51.6957C41.0857 53.7248 39.6906 55.1199 37.6615 55.1199C35.5055 55.1199 34.2372 53.7248 34.2372 51.6957ZM41.0857 51.6957C41.0857 49.5397 42.4807 48.2714 44.5099 48.2714C46.6659 48.2714 47.9342 49.6665 47.9342 51.6957C47.9342 53.7248 46.5391 55.1199 44.5099 55.1199C42.3539 55.1199 41.0857 53.7248 41.0857 51.6957ZM47.9342 51.6957C47.9342 49.5397 49.3292 48.2714 51.3584 48.2714C53.5144 48.2714 54.7826 49.6665 54.7826 51.6957C54.7826 53.7248 53.3876 55.1199 51.3584 55.1199C49.2024 55.1199 47.9342 53.7248 47.9342 51.6957ZM27.3888 51.6957C27.3888 49.5397 28.7838 48.2714 30.813 48.2714C32.969 48.2714 34.2372 49.6665 34.2372 51.6957C34.2372 53.7248 32.8422 55.1199 30.813 55.1199C28.657 55.1199 27.3888 53.7248 27.3888 51.6957ZM41.0857 58.5441C41.0857 56.3881 42.4807 55.1199 44.5099 55.1199C46.6659 55.1199 47.9342 56.515 47.9342 58.5441C47.9342 60.5733 46.5391 61.9684 44.5099 61.9684C42.3539 61.9684 41.0857 60.5733 41.0857 58.5441ZM34.2372 58.5441C34.2372 56.3881 35.6323 55.1199 37.6615 55.1199C39.8175 55.1199 41.0857 56.515 41.0857 58.5441C41.0857 60.5733 39.6906 61.9684 37.6615 61.9684C35.5055 61.9684 34.2372 60.5733 34.2372 58.5441ZM27.3888 58.5441C27.3888 56.3881 28.7838 55.1199 30.813 55.1199C32.969 55.1199 34.2372 56.515 34.2372 58.5441C34.2372 60.5733 32.8422 61.9684 30.813 61.9684C28.657 61.9684 27.3888 60.5733 27.3888 58.5441ZM41.0857 65.2658V65.3926C41.0857 67.4218 39.8175 68.69 37.7883 68.69C35.6323 68.69 34.2372 67.4218 34.2372 65.3926C34.2372 63.3634 35.5055 61.9684 37.5346 61.9684C39.6906 61.9684 41.0857 63.2366 41.0857 65.2658ZM34.2372 65.2658V65.3926C34.2372 67.4218 32.969 68.69 30.9398 68.69C28.7838 68.69 27.3888 67.4218 27.3888 65.3926C27.3888 63.3634 28.657 61.9684 30.6862 61.9684C32.8422 61.9684 34.2372 63.2366 34.2372 65.2658ZM27.3888 65.2658V65.3926C27.3888 67.2949 25.9937 68.69 24.0914 68.69C21.9354 68.69 20.6671 67.4218 20.6671 65.3926C20.6671 63.3634 21.9354 61.9684 23.9645 61.9684C25.9937 61.9684 27.3888 63.2366 27.3888 65.2658ZM34.2372 72.1142C34.2372 74.1434 32.8422 75.5385 30.813 75.5385C28.657 75.5385 27.3888 74.1434 27.3888 72.1142C27.3888 69.9582 28.7838 68.69 30.813 68.69C32.969 68.69 34.2372 70.0851 34.2372 72.1142ZM27.3888 71.9874V72.2411C27.3888 74.2702 26.1205 75.5385 24.0914 75.5385C22.0622 75.5385 20.6671 74.2702 20.6671 72.2411C20.6671 70.0851 21.9354 68.69 23.9645 68.69C25.9937 68.69 27.3888 69.9582 27.3888 71.9874ZM20.6671 78.9627C20.6671 80.9919 19.2721 82.3869 17.2429 82.3869C15.0869 82.3869 13.8187 80.9919 13.8187 78.9627C13.8187 76.8067 15.2137 75.5385 17.2429 75.5385C19.3989 75.5385 20.6671 76.9335 20.6671 78.9627ZM27.3888 78.8359V79.0895C27.3888 81.1187 26.1205 82.3869 24.0914 82.3869C22.0622 82.3869 20.6671 81.1187 20.6671 79.0895C20.6671 76.9335 21.9354 75.5385 23.9645 75.5385C25.9937 75.5385 27.3888 76.8067 27.3888 78.8359ZM6.9702 85.8112C6.9702 83.782 8.36526 82.3869 10.3944 82.3869C12.5504 82.3869 13.8187 83.782 13.8187 85.8112C13.8187 87.9671 12.4236 89.2354 10.3944 89.2354C8.23844 89.2354 6.9702 87.8403 6.9702 85.8112Z" fill="#CC5200"/>
</svg>
